<svg xmlns="http://www.w3.org/2000/svg" xmlns:xlink="http://www.w3.org/1999/xlink" width="130" zoomAndPan="magnify" viewBox="0 0 97.5 30.000001" height="40" preserveAspectRatio="xMidYMid meet" version="1.0"><defs><g/><clipPath id="daaf5c0509"><path d="M 0.207031 0.554688 L 6 0.554688 L 6 18 L 0.207031 18 Z M 0.207031 0.554688 " clip-rule="nonzero"/></clipPath><clipPath id="94ee7b22e5"><path d="M 54 0.554688 L 66 0.554688 L 66 19 L 54 19 Z M 54 0.554688 " clip-rule="nonzero"/></clipPath><clipPath id="3f9ecd4064"><path d="M 72 6 L 84.980469 6 L 84.980469 18 L 72 18 Z M 72 6 " clip-rule="nonzero"/></clipPath><clipPath id="aab6dc1da7"><rect x="0" width="85" y="0" height="27"/></clipPath></defs><g transform="matrix(1, 0, 0, 1, 6, 2)"><g clip-path="url(#aab6dc1da7)"><g clip-path="url(#daaf5c0509)"><g fill="#594450" fill-opacity="1"><g transform="translate(0.385028, 17.802806)"><g><path d="M 0.46875 -15.375 L 0.46875 -15.5625 C 1.007812 -15.6875 1.554688 -15.882812 2.109375 -16.15625 C 2.660156 -16.4375 3.125 -16.726562 3.5 -17.03125 L 3.671875 -17.03125 L 3.671875 -5.390625 C 3.671875 -4.191406 3.703125 -3.207031 3.765625 -2.4375 C 3.828125 -1.664062 3.988281 -1.097656 4.25 -0.734375 C 4.507812 -0.367188 4.941406 -0.1875 5.546875 -0.1875 L 5.546875 0 L 0.46875 0 L 0.46875 -0.1875 C 1.070312 -0.1875 1.503906 -0.367188 1.765625 -0.734375 C 2.035156 -1.097656 2.203125 -1.664062 2.265625 -2.4375 C 2.328125 -3.207031 2.359375 -4.191406 2.359375 -5.390625 L 2.359375 -11.296875 C 2.359375 -12.453125 2.328125 -13.316406 2.265625 -13.890625 C 2.210938 -14.472656 2.054688 -14.863281 1.796875 -15.0625 C 1.546875 -15.269531 1.101562 -15.375 0.46875 -15.375 Z M 0.46875 -15.375 "/></g></g></g></g><g fill="#594450" fill-opacity="1"><g transform="translate(6.412709, 17.802806)"><g><path d="M 6.21875 0.359375 C 5.34375 0.359375 4.523438 0.125 3.765625 -0.34375 C 3.003906 -0.8125 2.382812 -1.492188 1.90625 -2.390625 C 1.425781 -3.285156 1.1875 -4.378906 1.1875 -5.671875 C 1.1875 -6.878906 1.398438 -7.929688 1.828125 -8.828125 C 2.265625 -9.722656 2.863281 -10.421875 3.625 -10.921875 C 4.382812 -11.421875 5.25 -11.671875 6.21875 -11.671875 C 6.96875 -11.671875 7.625 -11.535156 8.1875 -11.265625 C 8.75 -10.992188 9.21875 -10.648438 9.59375 -10.234375 C 9.96875 -9.816406 10.25 -9.363281 10.4375 -8.875 C 10.625 -8.394531 10.71875 -7.929688 10.71875 -7.484375 C 10.71875 -7.066406 10.617188 -6.742188 10.421875 -6.515625 C 10.222656 -6.296875 9.988281 -6.144531 9.71875 -6.0625 C 9.445312 -5.976562 9.210938 -5.929688 9.015625 -5.921875 C 8.816406 -5.910156 8.71875 -5.90625 8.71875 -5.90625 L 2.28125 -5.90625 C 2.363281 -4.6875 2.660156 -3.675781 3.171875 -2.875 C 3.679688 -2.082031 4.304688 -1.492188 5.046875 -1.109375 C 5.796875 -0.734375 6.5625 -0.546875 7.34375 -0.546875 C 8.007812 -0.546875 8.546875 -0.640625 8.953125 -0.828125 C 9.359375 -1.023438 9.660156 -1.253906 9.859375 -1.515625 C 10.054688 -1.773438 10.1875 -2 10.25 -2.1875 C 10.320312 -2.382812 10.359375 -2.484375 10.359375 -2.484375 L 10.5625 -2.40625 C 10.257812 -1.382812 9.707031 -0.664062 8.90625 -0.25 C 8.101562 0.15625 7.207031 0.359375 6.21875 0.359375 Z M 5.5 -11.0625 C 4.5 -11.0625 3.707031 -10.6875 3.125 -9.9375 C 2.550781 -9.1875 2.265625 -7.988281 2.265625 -6.34375 L 7.703125 -6.34375 C 8.335938 -6.34375 8.773438 -6.410156 9.015625 -6.546875 C 9.265625 -6.679688 9.390625 -6.992188 9.390625 -7.484375 C 9.390625 -8.097656 9.257812 -8.628906 9 -9.078125 C 8.75 -9.535156 8.425781 -9.90625 8.03125 -10.1875 C 7.632812 -10.476562 7.207031 -10.695312 6.75 -10.84375 C 6.300781 -10.988281 5.882812 -11.0625 5.5 -11.0625 Z M 5.5 -11.0625 "/></g></g></g><g fill="#594450" fill-opacity="1"><g transform="translate(18.086874, 17.802806)"><g/></g></g><g fill="#594450" fill-opacity="1"><g transform="translate(24.04308, 17.802806)"><g><path d="M 4.21875 2.046875 C 4.21875 2.492188 4.164062 2.96875 4.0625 3.46875 C 3.957031 3.976562 3.769531 4.441406 3.5 4.859375 C 3.226562 5.285156 2.847656 5.601562 2.359375 5.8125 C 1.878906 6.03125 1.25 6.078125 0.46875 5.953125 L 0.46875 5.765625 C 1.175781 5.816406 1.703125 5.65625 2.046875 5.28125 C 2.398438 4.90625 2.628906 4.363281 2.734375 3.65625 C 2.847656 2.945312 2.90625 2.140625 2.90625 1.234375 L 2.90625 -6.078125 C 2.90625 -7.234375 2.875 -8.101562 2.8125 -8.6875 C 2.757812 -9.269531 2.609375 -9.660156 2.359375 -9.859375 C 2.109375 -10.054688 1.664062 -10.15625 1.03125 -10.15625 L 1.03125 -10.34375 C 1.5625 -10.46875 2.101562 -10.664062 2.65625 -10.9375 C 3.21875 -11.21875 3.679688 -11.507812 4.046875 -11.8125 C 4.441406 -12.132812 4.726562 -12.445312 4.90625 -12.75 C 5.082031 -13.0625 5.175781 -13.484375 5.1875 -14.015625 C 5.21875 -14.472656 5.082031 -14.894531 4.78125 -15.28125 C 4.488281 -15.675781 4.148438 -15.890625 3.765625 -15.921875 C 3.972656 -15.785156 4.140625 -15.609375 4.265625 -15.390625 C 4.390625 -15.171875 4.453125 -14.925781 4.453125 -14.65625 C 4.453125 -14.238281 4.304688 -13.882812 4.015625 -13.59375 C 3.722656 -13.300781 3.367188 -13.15625 2.953125 -13.15625 C 2.460938 -13.15625 2.085938 -13.3125 1.828125 -13.625 C 1.578125 -13.945312 1.453125 -14.304688 1.453125 -14.703125 C 1.453125 -15.085938 1.585938 -15.441406 1.859375 -15.765625 C 2.140625 -16.085938 2.5625 -16.25 3.125 -16.25 C 3.820312 -16.25 4.375 -16.035156 4.78125 -15.609375 C 5.1875 -15.179688 5.390625 -14.648438 5.390625 -14.015625 C 5.390625 -13.390625 5.257812 -12.890625 5 -12.515625 C 4.75 -12.148438 4.488281 -11.867188 4.21875 -11.671875 Z M 4.21875 2.046875 "/></g></g></g><g fill="#594450" fill-opacity="1"><g transform="translate(30.142236, 17.802806)"><g><path d="M 1.1875 -3.53125 C 1.1875 -4.4375 1.40625 -5.222656 1.84375 -5.890625 C 2.28125 -6.554688 2.875 -7.070312 3.625 -7.4375 C 4.382812 -7.800781 5.234375 -7.984375 6.171875 -7.984375 C 6.921875 -7.984375 7.554688 -7.859375 8.078125 -7.609375 C 8.597656 -7.367188 9.035156 -7.085938 9.390625 -6.765625 L 9.390625 -7.453125 C 9.390625 -8.109375 9.304688 -8.722656 9.140625 -9.296875 C 8.984375 -9.867188 8.691406 -10.332031 8.265625 -10.6875 C 7.835938 -11.039062 7.226562 -11.21875 6.4375 -11.21875 C 5.925781 -11.21875 5.507812 -11.140625 5.1875 -10.984375 C 4.875 -10.835938 4.617188 -10.65625 4.421875 -10.4375 C 4.234375 -10.21875 4.0625 -9.988281 3.90625 -9.75 C 3.757812 -9.519531 3.59375 -9.328125 3.40625 -9.171875 C 3.226562 -9.023438 3 -8.953125 2.71875 -8.953125 C 2.539062 -8.953125 2.394531 -9.015625 2.28125 -9.140625 C 2.175781 -9.273438 2.125 -9.429688 2.125 -9.609375 C 2.125 -9.941406 2.253906 -10.234375 2.515625 -10.484375 C 2.773438 -10.734375 3.101562 -10.945312 3.5 -11.125 C 3.894531 -11.3125 4.304688 -11.445312 4.734375 -11.53125 C 5.171875 -11.625 5.554688 -11.671875 5.890625 -11.671875 C 7.097656 -11.671875 8.050781 -11.441406 8.75 -10.984375 C 9.445312 -10.523438 9.945312 -9.941406 10.25 -9.234375 C 10.550781 -8.523438 10.703125 -7.8125 10.703125 -7.09375 L 10.703125 -5.390625 C 10.703125 -4.222656 10.726562 -3.347656 10.78125 -2.765625 C 10.832031 -2.191406 10.988281 -1.804688 11.25 -1.609375 C 11.519531 -1.410156 11.960938 -1.3125 12.578125 -1.3125 L 12.578125 -1.125 C 12.035156 -0.988281 11.488281 -0.78125 10.9375 -0.5 C 10.394531 -0.226562 9.9375 0.0546875 9.5625 0.359375 L 9.390625 0.359375 L 9.390625 -1.765625 C 8.941406 -1.191406 8.351562 -0.691406 7.625 -0.265625 C 6.90625 0.148438 6.101562 0.359375 5.21875 0.359375 C 4.488281 0.359375 3.816406 0.1875 3.203125 -0.15625 C 2.585938 -0.5 2.097656 -0.960938 1.734375 -1.546875 C 1.367188 -2.140625 1.1875 -2.800781 1.1875 -3.53125 Z M 2.578125 -3.59375 C 2.578125 -3.007812 2.722656 -2.46875 3.015625 -1.96875 C 3.304688 -1.476562 3.691406 -1.085938 4.171875 -0.796875 C 4.660156 -0.503906 5.1875 -0.359375 5.75 -0.359375 C 6.300781 -0.359375 6.828125 -0.460938 7.328125 -0.671875 C 7.828125 -0.890625 8.257812 -1.164062 8.625 -1.5 C 8.988281 -1.832031 9.242188 -2.191406 9.390625 -2.578125 L 9.390625 -6.171875 C 8.992188 -6.648438 8.539062 -6.992188 8.03125 -7.203125 C 7.519531 -7.421875 7.003906 -7.53125 6.484375 -7.53125 C 5.828125 -7.53125 5.195312 -7.367188 4.59375 -7.046875 C 3.988281 -6.734375 3.5 -6.28125 3.125 -5.6875 C 2.757812 -5.101562 2.578125 -4.40625 2.578125 -3.59375 Z M 2.578125 -3.59375 "/></g></g></g><g fill="#594450" fill-opacity="1"><g transform="translate(42.959994, 17.802806)"><g><path d="M 0.46875 -10.21875 C 1.007812 -10.34375 1.554688 -10.546875 2.109375 -10.828125 C 2.660156 -11.109375 3.125 -11.398438 3.5 -11.703125 L 3.671875 -11.703125 L 3.671875 -8.703125 C 3.828125 -9.171875 4.101562 -9.628906 4.5 -10.078125 C 4.894531 -10.535156 5.363281 -10.914062 5.90625 -11.21875 C 6.445312 -11.519531 7.007812 -11.671875 7.59375 -11.671875 C 8.21875 -11.671875 8.753906 -11.492188 9.203125 -11.140625 C 9.660156 -10.796875 9.890625 -10.320312 9.890625 -9.71875 C 9.890625 -9.226562 9.765625 -8.796875 9.515625 -8.421875 C 9.273438 -8.046875 8.945312 -7.859375 8.53125 -7.859375 C 8.320312 -7.859375 8.15625 -7.921875 8.03125 -8.046875 C 7.914062 -8.179688 7.859375 -8.347656 7.859375 -8.546875 C 7.859375 -8.847656 7.945312 -9.09375 8.125 -9.28125 C 8.300781 -9.476562 8.390625 -9.726562 8.390625 -10.03125 C 8.390625 -10.382812 8.242188 -10.640625 7.953125 -10.796875 C 7.671875 -10.953125 7.378906 -11.03125 7.078125 -11.03125 C 6.535156 -11.03125 6.050781 -10.882812 5.625 -10.59375 C 5.207031 -10.3125 4.851562 -9.957031 4.5625 -9.53125 C 4.269531 -9.101562 4.046875 -8.675781 3.890625 -8.25 C 3.742188 -7.832031 3.671875 -7.484375 3.671875 -7.203125 L 3.671875 -5.390625 C 3.671875 -4.191406 3.703125 -3.207031 3.765625 -2.4375 C 3.828125 -1.664062 3.988281 -1.097656 4.25 -0.734375 C 4.507812 -0.367188 4.941406 -0.1875 5.546875 -0.1875 L 5.546875 0 L 0.46875 0 L 0.46875 -0.1875 C 1.070312 -0.1875 1.503906 -0.367188 1.765625 -0.734375 C 2.035156 -1.097656 2.203125 -1.664062 2.265625 -2.4375 C 2.328125 -3.207031 2.359375 -4.191406 2.359375 -5.390625 L 2.359375 -5.953125 C 2.359375 -7.117188 2.328125 -7.988281 2.265625 -8.5625 C 2.210938 -9.144531 2.054688 -9.535156 1.796875 -9.734375 C 1.546875 -9.929688 1.101562 -10.03125 0.46875 -10.03125 Z M 0.46875 -10.21875 "/></g></g></g><g clip-path="url(#94ee7b22e5)"><g fill="#594450" fill-opacity="1"><g transform="translate(53.323795, 17.802806)"><g><path d="M 1.1875 -5.671875 C 1.1875 -6.878906 1.394531 -7.929688 1.8125 -8.828125 C 2.238281 -9.722656 2.832031 -10.421875 3.59375 -10.921875 C 4.351562 -11.421875 5.226562 -11.671875 6.21875 -11.671875 C 6.914062 -11.671875 7.492188 -11.492188 7.953125 -11.140625 C 8.421875 -10.796875 8.753906 -10.367188 8.953125 -9.859375 L 8.953125 -11.296875 C 8.953125 -12.453125 8.925781 -13.316406 8.875 -13.890625 C 8.820312 -14.472656 8.664062 -14.863281 8.40625 -15.0625 C 8.15625 -15.269531 7.710938 -15.375 7.078125 -15.375 L 7.078125 -15.5625 C 7.617188 -15.6875 8.160156 -15.882812 8.703125 -16.15625 C 9.253906 -16.4375 9.722656 -16.726562 10.109375 -17.03125 L 10.265625 -17.03125 L 10.265625 -5.390625 C 10.265625 -4.191406 10.296875 -3.207031 10.359375 -2.4375 C 10.421875 -1.664062 10.582031 -1.097656 10.84375 -0.734375 C 11.113281 -0.367188 11.550781 -0.1875 12.15625 -0.1875 L 12.15625 0 L 8.953125 0 L 8.953125 -1.40625 C 8.703125 -0.945312 8.347656 -0.535156 7.890625 -0.171875 C 7.429688 0.179688 6.875 0.359375 6.21875 0.359375 C 5.226562 0.359375 4.351562 0.109375 3.59375 -0.390625 C 2.832031 -0.890625 2.238281 -1.59375 1.8125 -2.5 C 1.394531 -3.40625 1.1875 -4.460938 1.1875 -5.671875 Z M 2.578125 -5.6875 C 2.578125 -4.582031 2.742188 -3.597656 3.078125 -2.734375 C 3.410156 -1.878906 3.851562 -1.210938 4.40625 -0.734375 C 4.957031 -0.265625 5.5625 -0.03125 6.21875 -0.03125 C 6.644531 -0.03125 7.066406 -0.171875 7.484375 -0.453125 C 7.910156 -0.734375 8.257812 -1.109375 8.53125 -1.578125 C 8.8125 -2.046875 8.953125 -2.550781 8.953125 -3.09375 L 8.953125 -8.359375 C 8.953125 -8.890625 8.828125 -9.375 8.578125 -9.8125 C 8.328125 -10.257812 7.992188 -10.617188 7.578125 -10.890625 C 7.160156 -11.160156 6.707031 -11.296875 6.21875 -11.296875 C 5.5625 -11.296875 4.957031 -11.054688 4.40625 -10.578125 C 3.851562 -10.097656 3.410156 -9.441406 3.078125 -8.609375 C 2.742188 -7.773438 2.578125 -6.800781 2.578125 -5.6875 Z M 2.578125 -5.6875 "/></g></g></g></g><g fill="#594450" fill-opacity="1"><g transform="translate(65.950956, 17.802806)"><g><path d="M 0.46875 -0.1875 C 1.070312 -0.1875 1.503906 -0.367188 1.765625 -0.734375 C 2.035156 -1.097656 2.203125 -1.664062 2.265625 -2.4375 C 2.328125 -3.207031 2.359375 -4.191406 2.359375 -5.390625 L 2.359375 -5.953125 C 2.359375 -7.117188 2.328125 -7.988281 2.265625 -8.5625 C 2.210938 -9.144531 2.054688 -9.535156 1.796875 -9.734375 C 1.546875 -9.929688 1.101562 -10.03125 0.46875 -10.03125 L 0.46875 -10.21875 C 1.007812 -10.34375 1.554688 -10.546875 2.109375 -10.828125 C 2.671875 -11.109375 3.132812 -11.398438 3.5 -11.703125 C 3.894531 -12.015625 4.179688 -12.328125 4.359375 -12.640625 C 4.535156 -12.953125 4.628906 -13.367188 4.640625 -13.890625 C 4.671875 -14.347656 4.535156 -14.769531 4.234375 -15.15625 C 3.929688 -15.550781 3.59375 -15.765625 3.21875 -15.796875 C 3.425781 -15.671875 3.59375 -15.492188 3.71875 -15.265625 C 3.84375 -15.046875 3.90625 -14.800781 3.90625 -14.53125 C 3.90625 -14.125 3.757812 -13.769531 3.46875 -13.46875 C 3.175781 -13.175781 2.820312 -13.03125 2.40625 -13.03125 C 1.914062 -13.03125 1.539062 -13.1875 1.28125 -13.5 C 1.03125 -13.820312 0.90625 -14.179688 0.90625 -14.578125 C 0.90625 -14.960938 1.039062 -15.316406 1.3125 -15.640625 C 1.59375 -15.960938 2.015625 -16.125 2.578125 -16.125 C 3.273438 -16.125 3.828125 -15.910156 4.234375 -15.484375 C 4.640625 -15.054688 4.84375 -14.523438 4.84375 -13.890625 C 4.84375 -13.273438 4.710938 -12.78125 4.453125 -12.40625 C 4.203125 -12.03125 3.941406 -11.75 3.671875 -11.5625 L 3.671875 -5.390625 C 3.671875 -4.191406 3.703125 -3.207031 3.765625 -2.4375 C 3.828125 -1.664062 3.988281 -1.097656 4.25 -0.734375 C 4.507812 -0.367188 4.941406 -0.1875 5.546875 -0.1875 L 5.546875 0 L 0.46875 0 Z M 0.46875 -0.1875 "/></g></g></g><g clip-path="url(#3f9ecd4064)"><g fill="#594450" fill-opacity="1"><g transform="translate(71.740387, 17.802806)"><g><path d="M 0.46875 -10.03125 L 0.46875 -10.21875 C 1.007812 -10.34375 1.554688 -10.546875 2.109375 -10.828125 C 2.660156 -11.109375 3.125 -11.398438 3.5 -11.703125 L 3.671875 -11.703125 L 3.671875 -9.53125 C 3.921875 -9.863281 4.226562 -10.195312 4.59375 -10.53125 C 4.957031 -10.863281 5.378906 -11.132812 5.859375 -11.34375 C 6.347656 -11.5625 6.878906 -11.671875 7.453125 -11.671875 C 8.503906 -11.671875 9.363281 -11.332031 10.03125 -10.65625 C 10.695312 -9.988281 11.03125 -9.113281 11.03125 -8.03125 C 11.03125 -8.03125 11.035156 -7.878906 11.046875 -7.578125 C 11.054688 -7.273438 11.0625 -6.914062 11.0625 -6.5 C 11.0625 -6.09375 11.0625 -5.722656 11.0625 -5.390625 C 11.0625 -4.191406 11.09375 -3.207031 11.15625 -2.4375 C 11.21875 -1.664062 11.378906 -1.097656 11.640625 -0.734375 C 11.898438 -0.367188 12.332031 -0.1875 12.9375 -0.1875 L 12.9375 0 L 7.859375 0 L 7.859375 -0.1875 C 8.460938 -0.1875 8.894531 -0.367188 9.15625 -0.734375 C 9.425781 -1.097656 9.59375 -1.664062 9.65625 -2.4375 C 9.71875 -3.207031 9.75 -4.191406 9.75 -5.390625 L 9.75 -5.953125 C 9.75 -6.160156 9.75 -6.394531 9.75 -6.65625 C 9.75 -6.914062 9.742188 -7.140625 9.734375 -7.328125 C 9.722656 -7.523438 9.71875 -7.625 9.71875 -7.625 C 9.71875 -8.875 9.460938 -9.769531 8.953125 -10.3125 C 8.453125 -10.851562 7.859375 -11.125 7.171875 -11.125 C 6.484375 -11.125 5.804688 -10.894531 5.140625 -10.4375 C 4.472656 -9.988281 3.984375 -9.394531 3.671875 -8.65625 L 3.671875 -5.390625 C 3.671875 -4.191406 3.703125 -3.207031 3.765625 -2.4375 C 3.828125 -1.664062 3.988281 -1.097656 4.25 -0.734375 C 4.507812 -0.367188 4.941406 -0.1875 5.546875 -0.1875 L 5.546875 0 L 0.46875 0 L 0.46875 -0.1875 C 1.070312 -0.1875 1.503906 -0.367188 1.765625 -0.734375 C 2.035156 -1.097656 2.203125 -1.664062 2.265625 -2.4375 C 2.328125 -3.207031 2.359375 -4.191406 2.359375 -5.390625 L 2.359375 -5.953125 C 2.359375 -7.117188 2.328125 -7.988281 2.265625 -8.5625 C 2.210938 -9.144531 2.054688 -9.535156 1.796875 -9.734375 C 1.546875 -9.929688 1.101562 -10.03125 0.46875 -10.03125 Z M 0.46875 -10.03125 "/></g></g></g></g></g></g></svg>
