<svg xmlns="http://www.w3.org/2000/svg" xmlns:xlink="http://www.w3.org/1999/xlink" width="250" zoomAndPan="magnify" viewBox="0 0 187.5 187.499992" height="250" preserveAspectRatio="xMidYMid meet" version="1.0"><defs><g/><clipPath id="fb1436968d"><path d="M 0.617188 1.296875 L 170.519531 1.296875 L 170.519531 56.273438 L 0.617188 56.273438 Z M 0.617188 1.296875 " clip-rule="nonzero"/></clipPath><clipPath id="9e2084117b"><path d="M 0.617188 112.640625 L 170.605469 112.640625 L 170.605469 167.617188 L 0.617188 167.617188 Z M 0.617188 112.640625 " clip-rule="nonzero"/></clipPath><clipPath id="db5f92b087"><path d="M 0.617188 0.722656 L 170.605469 0.722656 L 170.605469 55.617188 L 0.617188 55.617188 Z M 0.617188 0.722656 " clip-rule="nonzero"/></clipPath><clipPath id="244eb579f3"><rect x="0" width="171" y="0" height="56"/></clipPath><clipPath id="95b4b91710"><rect x="0" width="172" y="0" height="169"/></clipPath></defs><g transform="matrix(1, 0, 0, 1, 8, 9)"><g clip-path="url(#95b4b91710)"><g clip-path="url(#fb1436968d)"><path fill="#c4ccce" d="M 121.355469 54.09375 C 120.226562 54.824219 118.917969 55.007812 117.941406 54.570312 C 117.800781 54.507812 117.636719 54.570312 117.570312 54.710938 C 117.507812 54.851562 117.570312 55.019531 117.714844 55.082031 C 118.863281 55.597656 120.375 55.398438 121.660156 54.566406 C 123.082031 53.644531 123.929688 52.164062 123.929688 50.605469 C 123.929688 47.34375 121.226562 44.039062 116.058594 44.039062 C 108.941406 44.039062 98.191406 48.738281 89.914062 55.464844 C 89.792969 55.5625 89.773438 55.738281 89.871094 55.859375 C 89.929688 55.925781 90.007812 55.960938 90.089844 55.960938 C 90.152344 55.960938 90.214844 55.941406 90.269531 55.898438 C 98.453125 49.246094 109.058594 44.601562 116.058594 44.601562 C 121.082031 44.601562 123.367188 47.714844 123.367188 50.605469 C 123.367188 51.972656 122.617188 53.277344 121.355469 54.09375 Z M 109.003906 20.210938 C 109.117188 20.105469 109.125 19.925781 109.019531 19.8125 C 108.820312 19.601562 108.660156 18.726562 109.058594 17.808594 C 109.390625 17.039062 110.183594 16.121094 112.0625 16.121094 C 116.429688 16.121094 121.144531 20.03125 121.144531 26.34375 C 121.144531 32.253906 118.042969 36.207031 115.222656 38.585938 C 120.722656 31.851562 119.117188 26.226562 118.425781 24.539062 C 117.515625 22.316406 115.886719 20.761719 114.460938 20.761719 C 113.15625 20.761719 112.242188 21.625 112.242188 22.867188 C 112.242188 23.019531 112.367188 23.148438 112.523438 23.148438 C 112.679688 23.148438 112.804688 23.019531 112.804688 22.867188 C 112.804688 21.945312 113.46875 21.324219 114.460938 21.324219 C 115.476562 21.324219 116.984375 22.503906 117.90625 24.753906 C 118.632812 26.53125 120.417969 32.898438 112.898438 40.292969 C 112.890625 40.300781 112.886719 40.308594 112.882812 40.316406 C 112.871094 40.328125 112.859375 40.347656 112.851562 40.363281 C 112.839844 40.378906 112.835938 40.394531 112.828125 40.410156 C 112.824219 40.425781 112.820312 40.445312 112.820312 40.460938 C 112.816406 40.480469 112.816406 40.496094 112.816406 40.515625 C 112.820312 40.53125 112.824219 40.550781 112.828125 40.566406 C 112.832031 40.585938 112.839844 40.601562 112.847656 40.621094 C 112.851562 40.628906 112.851562 40.636719 112.855469 40.644531 C 112.863281 40.652344 112.871094 40.652344 112.875 40.660156 C 112.882812 40.667969 112.886719 40.683594 112.894531 40.691406 C 112.910156 40.707031 112.925781 40.710938 112.941406 40.722656 C 112.953125 40.730469 112.960938 40.738281 112.972656 40.746094 C 113.011719 40.761719 113.050781 40.777344 113.09375 40.777344 C 113.140625 40.777344 113.183594 40.757812 113.226562 40.738281 C 113.234375 40.734375 113.238281 40.734375 113.246094 40.730469 C 116.40625 38.738281 121.707031 34.21875 121.707031 26.34375 C 121.707031 19.683594 116.703125 15.558594 112.0625 15.558594 C 109.765625 15.558594 108.871094 16.828125 108.542969 17.585938 C 108.089844 18.621094 108.214844 19.773438 108.609375 20.195312 C 108.714844 20.3125 108.894531 20.316406 109.003906 20.210938 Z M 121.902344 41.839844 C 122.519531 42.464844 123.34375 42.808594 124.21875 42.808594 C 125.09375 42.808594 125.914062 42.464844 126.53125 41.84375 C 129.277344 39.109375 129.238281 34.957031 129.234375 34.78125 C 129.234375 34.628906 129.109375 34.503906 128.957031 34.503906 C 128.785156 34.503906 124.644531 34.476562 121.902344 37.210938 C 120.625 38.496094 120.625 40.574219 121.902344 41.839844 Z M 122.300781 37.605469 C 124.476562 35.441406 127.699219 35.121094 128.667969 35.074219 C 128.625 36.042969 128.3125 39.277344 126.136719 41.445312 C 125.625 41.960938 124.941406 42.246094 124.21875 42.246094 C 123.496094 42.246094 122.8125 41.960938 122.300781 41.445312 C 121.242188 40.390625 121.246094 38.671875 122.300781 37.605469 Z M 93.925781 54.652344 C 93.816406 54.726562 93.773438 54.871094 93.828125 54.992188 C 93.878906 55.113281 94.003906 55.183594 94.140625 55.15625 C 95.953125 54.796875 97.328125 55 98.785156 55.207031 C 99.710938 55.339844 100.65625 55.476562 101.746094 55.476562 C 102.449219 55.476562 103.210938 55.421875 104.070312 55.269531 C 106.117188 54.914062 107.300781 53.820312 108.445312 52.765625 C 109.359375 51.929688 110.21875 51.136719 111.449219 50.820312 C 111.578125 50.789062 111.664062 50.671875 111.660156 50.539062 C 111.660156 50.410156 111.5625 50.296875 111.433594 50.273438 C 108.171875 49.628906 101.558594 49.34375 93.925781 54.652344 Z M 108.066406 52.355469 C 106.980469 53.355469 105.855469 54.386719 103.972656 54.71875 C 101.875 55.085938 100.34375 54.867188 98.867188 54.652344 C 97.96875 54.523438 97.101562 54.398438 96.140625 54.398438 C 95.859375 54.398438 95.570312 54.40625 95.265625 54.433594 C 101.570312 50.410156 107.046875 50.21875 110.296875 50.65625 C 109.449219 51.078125 108.773438 51.703125 108.066406 52.355469 Z M 126.949219 46.132812 C 126.933594 46.140625 126.917969 46.152344 126.90625 46.164062 L 126.894531 46.175781 L 126.890625 46.183594 C 126.882812 46.195312 126.875 46.207031 126.867188 46.21875 C 126.863281 46.230469 126.855469 46.238281 126.851562 46.25 C 126.835938 46.28125 126.828125 46.316406 126.828125 46.351562 L 126.828125 46.363281 L 126.832031 46.371094 L 126.835938 46.382812 C 126.835938 46.40625 126.835938 46.429688 126.84375 46.453125 L 126.847656 46.457031 C 126.863281 46.488281 126.878906 46.519531 126.902344 46.542969 L 126.90625 46.550781 C 127.691406 47.371094 128.386719 48.472656 129.0625 49.539062 C 129.800781 50.710938 130.566406 51.917969 131.445312 52.746094 C 132.617188 53.84375 134.140625 54.476562 135.367188 54.980469 C 136.058594 55.269531 136.65625 55.515625 137.089844 55.792969 C 137.136719 55.824219 137.191406 55.835938 137.242188 55.835938 C 137.320312 55.835938 137.398438 55.804688 137.453125 55.738281 C 137.546875 55.632812 137.546875 55.476562 137.453125 55.371094 C 136.960938 54.804688 136.496094 54.046875 136.003906 53.242188 C 135.382812 52.226562 134.738281 51.175781 133.96875 50.417969 C 132.972656 49.445312 131.144531 48.398438 129.53125 47.472656 C 129.050781 47.199219 128.59375 46.9375 128.171875 46.683594 C 132.40625 47 138.308594 49.078125 144.535156 51.269531 C 151.460938 53.707031 158.617188 56.230469 163.558594 56.230469 C 167.125 56.230469 169.125 54.480469 169.804688 52.84375 C 170.4375 51.316406 170.113281 49.699219 168.929688 48.515625 C 167.582031 47.167969 166.269531 47.265625 165.605469 47.445312 C 164.675781 47.691406 163.90625 48.40625 163.691406 49.214844 C 163.53125 49.8125 163.683594 50.382812 164.121094 50.820312 C 164.230469 50.929688 164.410156 50.925781 164.519531 50.820312 C 164.628906 50.707031 164.628906 50.53125 164.519531 50.421875 C 164.148438 50.054688 164.160156 49.640625 164.234375 49.359375 C 164.402344 48.738281 165.011719 48.1875 165.753906 47.988281 C 166.300781 47.839844 167.382812 47.765625 168.535156 48.910156 C 169.546875 49.929688 169.828125 51.316406 169.285156 52.628906 C 168.671875 54.097656 166.847656 55.667969 163.558594 55.667969 C 158.714844 55.667969 151.601562 53.164062 144.722656 50.738281 C 138.957031 48.710938 133.46875 46.78125 129.269531 46.234375 C 130.789062 46 132.402344 45.839844 133.988281 45.695312 C 136.648438 45.449219 139.402344 45.191406 141.574219 44.535156 C 144.472656 43.664062 146.917969 41.976562 148.878906 40.625 C 149.882812 39.933594 150.828125 39.28125 151.664062 38.851562 C 151.789062 38.789062 151.847656 38.644531 151.804688 38.511719 C 151.757812 38.378906 151.621094 38.300781 151.484375 38.324219 C 150.15625 38.574219 148.570312 38.707031 146.890625 38.851562 C 144.515625 39.050781 142.054688 39.261719 140.050781 39.816406 C 137.324219 40.566406 133.644531 42.550781 130.398438 44.304688 C 129.164062 44.972656 127.996094 45.601562 126.984375 46.105469 C 126.972656 46.113281 126.960938 46.125 126.949219 46.132812 Z M 129.25 47.960938 C 130.835938 48.867188 132.632812 49.894531 133.574219 50.820312 C 134.292969 51.527344 134.917969 52.550781 135.523438 53.535156 C 135.785156 53.960938 136.039062 54.375 136.296875 54.761719 C 136.074219 54.664062 135.832031 54.566406 135.582031 54.460938 C 134.339844 53.945312 132.925781 53.363281 131.832031 52.335938 C 131.003906 51.558594 130.292969 50.429688 129.539062 49.238281 C 129.15625 48.636719 128.769531 48.019531 128.359375 47.445312 C 128.644531 47.613281 128.945312 47.785156 129.25 47.960938 Z M 130.664062 44.796875 C 133.882812 43.058594 137.535156 41.089844 140.199219 40.359375 C 142.15625 39.816406 144.585938 39.609375 146.9375 39.410156 C 148.058594 39.3125 149.140625 39.222656 150.136719 39.097656 C 149.628906 39.421875 149.101562 39.785156 148.5625 40.160156 C 146.527344 41.558594 144.226562 43.148438 141.410156 43.996094 C 139.292969 44.636719 136.570312 44.890625 133.933594 45.132812 C 132.273438 45.289062 130.574219 45.445312 128.984375 45.699219 C 129.523438 45.414062 130.085938 45.109375 130.664062 44.796875 Z M 98.539062 40.648438 C 99.316406 41.667969 100.480469 42.21875 101.796875 42.21875 C 101.984375 42.21875 102.175781 42.203125 102.371094 42.179688 C 102.820312 42.429688 103.347656 42.554688 103.914062 42.554688 C 104.367188 42.554688 104.839844 42.476562 105.308594 42.320312 C 106.734375 41.839844 107.925781 40.71875 108.492188 39.324219 C 108.890625 38.347656 109.023438 37.136719 109.152344 35.964844 C 109.359375 34.117188 109.550781 32.375 110.675781 31.609375 C 110.753906 31.558594 110.796875 31.472656 110.800781 31.382812 C 110.800781 31.292969 110.757812 31.207031 110.683594 31.152344 C 109.183594 30.058594 107.191406 30.300781 105.914062 31.09375 C 105.421875 30.023438 104.710938 29.019531 103.746094 28.179688 C 103.667969 28.109375 103.558594 28.09375 103.460938 28.128906 C 103.363281 28.164062 103.296875 28.253906 103.28125 28.355469 C 103.132812 29.480469 102.207031 30.414062 101.136719 31.492188 C 100.058594 32.578125 98.839844 33.804688 98.105469 35.535156 C 97.332031 37.371094 97.492188 39.285156 98.539062 40.648438 Z M 110.039062 31.402344 C 108.984375 32.390625 108.785156 34.175781 108.59375 35.902344 C 108.46875 37.035156 108.339844 38.207031 107.96875 39.109375 C 107.464844 40.355469 106.402344 41.355469 105.128906 41.785156 C 104.507812 41.996094 103.898438 42.03125 103.355469 41.925781 C 104.738281 41.378906 105.855469 40.035156 106.425781 38.140625 C 106.984375 36.285156 106.996094 33.84375 106.132812 31.617188 C 107.15625 30.941406 108.753906 30.675781 110.039062 31.402344 Z M 98.625 35.75 C 99.316406 34.125 100.496094 32.9375 101.535156 31.886719 C 102.53125 30.886719 103.40625 30.003906 103.730469 28.929688 C 106.316406 31.472656 106.679688 35.351562 105.886719 37.980469 C 105.261719 40.050781 103.957031 41.410156 102.386719 41.617188 C 101.003906 41.8125 99.765625 41.328125 98.984375 40.308594 C 98.0625 39.105469 97.929688 37.402344 98.625 35.753906 Z M 46.605469 42.808594 L 46.609375 42.808594 C 47.488281 42.808594 48.308594 42.464844 48.929688 41.84375 C 50.199219 40.574219 50.199219 38.496094 48.929688 37.210938 C 46.1875 34.476562 42.035156 34.492188 41.867188 34.503906 C 41.714844 34.507812 41.59375 34.628906 41.589844 34.78125 C 41.585938 34.957031 41.554688 39.109375 44.296875 41.839844 C 44.914062 42.464844 45.734375 42.808594 46.609375 42.808594 Z M 48.53125 37.605469 C 49.582031 38.671875 49.585938 40.394531 48.53125 41.445312 C 48.015625 41.960938 47.335938 42.246094 46.609375 42.246094 L 46.605469 42.246094 C 45.882812 42.246094 45.203125 41.960938 44.695312 41.445312 C 42.519531 39.28125 42.203125 36.046875 42.160156 35.074219 C 43.128906 35.121094 46.355469 35.441406 48.53125 37.605469 Z M 60.023438 31.382812 C 60.027344 31.476562 60.074219 31.558594 60.148438 31.613281 C 61.277344 32.375 61.472656 34.121094 61.675781 35.96875 C 61.808594 37.140625 61.941406 38.351562 62.339844 39.324219 C 62.902344 40.71875 64.089844 41.835938 65.515625 42.320312 C 65.988281 42.476562 66.460938 42.558594 66.914062 42.558594 C 67.476562 42.558594 68.003906 42.429688 68.457031 42.183594 C 68.625 42.203125 68.792969 42.214844 68.957031 42.214844 C 70.304688 44.417969 71.683594 46.222656 73.050781 47.578125 C 73.105469 47.632812 73.179688 47.660156 73.25 47.660156 C 73.320312 47.660156 73.394531 47.632812 73.449219 47.578125 C 73.558594 47.46875 73.558594 47.289062 73.445312 47.179688 C 72.164062 45.910156 70.871094 44.226562 69.597656 42.183594 C 70.679688 42.042969 71.625 41.519531 72.289062 40.648438 C 73.332031 39.285156 73.492188 37.371094 72.714844 35.53125 C 71.984375 33.808594 70.765625 32.578125 69.691406 31.496094 C 68.621094 30.414062 67.691406 29.480469 67.546875 28.355469 C 67.535156 28.253906 67.464844 28.164062 67.371094 28.128906 C 67.273438 28.09375 67.164062 28.113281 67.085938 28.179688 C 66.117188 29.019531 65.410156 30.023438 64.914062 31.09375 C 63.636719 30.304688 61.644531 30.058594 60.140625 31.152344 C 60.066406 31.207031 60.023438 31.292969 60.023438 31.382812 Z M 67.097656 28.933594 C 67.421875 30.007812 68.300781 30.890625 69.292969 31.890625 C 70.332031 32.9375 71.511719 34.125 72.199219 35.75 C 72.894531 37.402344 72.761719 39.105469 71.84375 40.308594 C 71.0625 41.328125 69.816406 41.808594 68.4375 41.617188 C 66.871094 41.410156 65.566406 40.050781 64.941406 37.980469 C 64.152344 35.351562 64.515625 31.472656 67.101562 28.933594 Z M 64.699219 31.621094 C 63.835938 33.84375 63.84375 36.289062 64.402344 38.144531 C 64.972656 40.039062 66.089844 41.382812 67.46875 41.929688 C 66.929688 42.03125 66.320312 41.996094 65.695312 41.785156 C 64.421875 41.355469 63.363281 40.359375 62.859375 39.113281 C 62.492188 38.210938 62.363281 37.039062 62.234375 35.90625 C 62.042969 34.175781 61.84375 32.394531 60.785156 31.402344 C 62.078125 30.679688 63.675781 30.945312 64.699219 31.621094 Z M 7.269531 56.230469 C 12.214844 56.230469 19.375 53.707031 26.300781 51.265625 C 32.523438 49.074219 38.425781 47 42.65625 46.683594 C 42.234375 46.933594 41.78125 47.195312 41.304688 47.46875 C 39.691406 48.390625 37.859375 49.441406 36.863281 50.417969 C 36.09375 51.175781 35.449219 52.226562 34.828125 53.242188 C 34.335938 54.046875 33.871094 54.804688 33.378906 55.371094 C 33.285156 55.476562 33.285156 55.632812 33.378906 55.738281 C 33.433594 55.804688 33.511719 55.835938 33.589844 55.835938 C 33.644531 55.835938 33.695312 55.820312 33.742188 55.792969 C 34.175781 55.515625 34.773438 55.265625 35.464844 54.980469 C 36.691406 54.472656 38.214844 53.84375 39.386719 52.746094 C 40.269531 51.917969 41.03125 50.707031 41.773438 49.535156 C 42.445312 48.46875 43.140625 47.371094 43.921875 46.550781 L 43.925781 46.542969 C 43.949219 46.519531 43.964844 46.488281 43.976562 46.457031 L 43.980469 46.453125 C 43.992188 46.429688 43.992188 46.40625 43.992188 46.378906 L 43.996094 46.375 L 43.996094 46.363281 L 44 46.355469 C 44 46.320312 43.992188 46.285156 43.976562 46.25 C 43.972656 46.238281 43.964844 46.230469 43.960938 46.222656 C 43.953125 46.207031 43.945312 46.195312 43.9375 46.183594 L 43.933594 46.175781 L 43.929688 46.175781 L 43.921875 46.164062 C 43.910156 46.152344 43.894531 46.144531 43.878906 46.132812 C 43.867188 46.125 43.859375 46.113281 43.84375 46.105469 C 42.828125 45.597656 41.660156 44.96875 40.417969 44.296875 C 37.175781 42.546875 33.503906 40.5625 30.785156 39.816406 C 28.777344 39.261719 26.320312 39.050781 23.941406 38.851562 C 22.261719 38.707031 20.675781 38.574219 19.347656 38.324219 C 19.210938 38.300781 19.074219 38.378906 19.03125 38.511719 C 18.984375 38.644531 19.042969 38.789062 19.167969 38.851562 C 20 39.28125 20.941406 39.929688 21.941406 40.617188 C 23.90625 41.972656 26.351562 43.660156 29.257812 44.535156 C 31.429688 45.191406 34.179688 45.449219 36.84375 45.695312 C 38.429688 45.839844 40.042969 46 41.558594 46.234375 C 37.363281 46.78125 31.875 48.707031 26.117188 50.738281 C 19.234375 53.160156 12.117188 55.667969 7.269531 55.667969 C 3.980469 55.667969 2.160156 54.097656 1.550781 52.632812 C 1.003906 51.320312 1.285156 49.929688 2.300781 48.910156 C 3.445312 47.765625 4.53125 47.839844 5.078125 47.984375 C 5.820312 48.183594 6.433594 48.738281 6.597656 49.359375 C 6.671875 49.640625 6.683594 50.050781 6.316406 50.421875 C 6.207031 50.53125 6.207031 50.707031 6.316406 50.816406 C 6.425781 50.925781 6.605469 50.929688 6.714844 50.816406 C 7.148438 50.382812 7.300781 49.8125 7.140625 49.214844 C 6.925781 48.40625 6.15625 47.691406 5.226562 47.441406 C 4.5625 47.265625 3.25 47.167969 1.902344 48.515625 C 0.722656 49.699219 0.394531 51.316406 1.03125 52.847656 C 1.707031 54.480469 3.703125 56.230469 7.269531 56.230469 Z M 41.296875 49.234375 C 40.542969 50.429688 39.828125 51.554688 39 52.335938 C 37.902344 53.363281 36.496094 53.945312 35.25 54.460938 C 35 54.5625 34.757812 54.664062 34.535156 54.761719 C 34.792969 54.375 35.046875 53.964844 35.308594 53.535156 C 35.914062 52.550781 36.539062 51.527344 37.257812 50.820312 C 38.199219 49.894531 40 48.863281 41.585938 47.957031 C 41.890625 47.78125 42.1875 47.613281 42.472656 47.445312 C 42.0625 48.019531 41.675781 48.632812 41.296875 49.234375 Z M 36.894531 45.132812 C 34.257812 44.890625 31.535156 44.636719 29.417969 43.996094 C 26.597656 43.148438 24.292969 41.558594 22.257812 40.152344 C 21.71875 39.78125 21.195312 39.421875 20.691406 39.097656 C 21.6875 39.222656 22.769531 39.3125 23.890625 39.410156 C 26.246094 39.609375 28.675781 39.816406 30.632812 40.359375 C 33.289062 41.089844 36.933594 43.054688 40.152344 44.792969 C 40.734375 45.105469 41.300781 45.410156 41.84375 45.699219 C 40.253906 45.445312 38.554688 45.289062 36.894531 45.132812 Z M 57.589844 40.730469 C 57.59375 40.734375 57.601562 40.734375 57.605469 40.738281 C 57.648438 40.761719 57.691406 40.773438 57.738281 40.777344 C 57.78125 40.777344 57.820312 40.761719 57.859375 40.746094 C 57.871094 40.738281 57.882812 40.730469 57.894531 40.722656 C 57.90625 40.710938 57.925781 40.707031 57.9375 40.691406 C 57.949219 40.683594 57.953125 40.671875 57.960938 40.660156 C 57.964844 40.652344 57.972656 40.648438 57.976562 40.644531 C 57.980469 40.636719 57.980469 40.628906 57.984375 40.621094 C 57.996094 40.601562 58 40.585938 58.003906 40.566406 C 58.011719 40.550781 58.015625 40.535156 58.015625 40.515625 C 58.015625 40.5 58.015625 40.480469 58.015625 40.464844 C 58.011719 40.445312 58.007812 40.425781 58.003906 40.410156 C 58 40.394531 57.992188 40.378906 57.984375 40.363281 C 57.972656 40.347656 57.960938 40.328125 57.949219 40.3125 C 57.945312 40.308594 57.941406 40.300781 57.9375 40.292969 C 50.410156 32.898438 52.199219 26.53125 52.925781 24.753906 C 53.847656 22.503906 55.355469 21.324219 56.371094 21.324219 C 57.363281 21.324219 58.027344 21.945312 58.027344 22.867188 C 58.027344 23.019531 58.15625 23.148438 58.308594 23.148438 C 58.464844 23.148438 58.589844 23.019531 58.589844 22.867188 C 58.589844 21.625 57.679688 20.761719 56.371094 20.761719 C 54.945312 20.761719 53.316406 22.316406 52.402344 24.542969 C 51.714844 26.226562 50.109375 31.851562 55.609375 38.585938 C 52.789062 36.207031 49.6875 32.253906 49.6875 26.34375 C 49.6875 20.03125 54.398438 16.121094 58.761719 16.121094 C 60.644531 16.121094 61.4375 17.042969 61.773438 17.816406 C 62.171875 18.730469 62.007812 19.601562 61.8125 19.8125 C 61.707031 19.925781 61.710938 20.105469 61.824219 20.210938 C 61.9375 20.316406 62.117188 20.308594 62.222656 20.195312 C 62.617188 19.773438 62.738281 18.625 62.289062 17.589844 C 61.960938 16.832031 61.0625 15.558594 58.761719 15.558594 C 54.128906 15.558594 49.125 19.679688 49.125 26.34375 C 49.125 34.21875 54.429688 38.738281 57.589844 40.730469 Z M 59.394531 50.273438 C 59.265625 50.296875 59.171875 50.410156 59.167969 50.539062 C 59.164062 50.671875 59.253906 50.789062 59.378906 50.820312 C 60.613281 51.136719 61.472656 51.925781 62.382812 52.765625 C 63.527344 53.824219 64.714844 54.914062 66.761719 55.269531 C 67.617188 55.421875 68.378906 55.476562 69.082031 55.476562 C 70.167969 55.476562 71.113281 55.34375 72.039062 55.207031 C 73.496094 55 74.871094 54.800781 76.683594 55.160156 C 76.816406 55.183594 76.945312 55.113281 76.996094 54.992188 C 77.046875 54.871094 77.007812 54.726562 76.898438 54.652344 C 69.269531 49.34375 62.65625 49.628906 59.394531 50.273438 Z M 75.558594 54.433594 C 74.234375 54.324219 73.121094 54.484375 71.960938 54.652344 C 70.480469 54.867188 68.953125 55.085938 66.859375 54.71875 C 64.972656 54.386719 63.851562 53.355469 62.765625 52.355469 C 62.058594 51.703125 61.382812 51.082031 60.53125 50.65625 C 63.78125 50.222656 69.257812 50.410156 75.558594 54.433594 Z M 77.367188 28.910156 C 79.1875 28.910156 79.875 28.011719 80.539062 27.144531 C 81.007812 26.53125 81.492188 25.902344 82.425781 25.535156 C 82.578125 26.613281 83.335938 27.476562 84.023438 28.253906 C 84.503906 28.796875 84.957031 29.3125 85.132812 29.820312 L 85.132812 54.632812 C 84.558594 52.910156 84.273438 50.800781 83.976562 48.585938 C 83.300781 43.546875 82.539062 37.835938 77.898438 35.460938 C 77.785156 35.402344 77.644531 35.425781 77.5625 35.519531 C 77.476562 35.613281 77.464844 35.753906 77.53125 35.859375 C 77.542969 35.875 78.570312 37.527344 78.570312 39.636719 C 78.570312 40.621094 78.207031 41.597656 77.820312 42.632812 C 77.378906 43.828125 76.917969 45.0625 76.917969 46.496094 C 76.917969 49.480469 78.808594 50.875 81.003906 52.488281 C 82.34375 53.476562 83.863281 54.59375 85.195312 56.25 C 85.199219 56.253906 85.203125 56.253906 85.207031 56.257812 C 85.21875 56.269531 85.230469 56.28125 85.242188 56.289062 C 85.25 56.292969 85.253906 56.304688 85.261719 56.308594 C 85.269531 56.3125 85.273438 56.308594 85.277344 56.3125 C 85.285156 56.316406 85.292969 56.324219 85.300781 56.328125 C 85.335938 56.34375 85.375 56.355469 85.414062 56.355469 L 85.417969 56.355469 C 85.457031 56.355469 85.496094 56.34375 85.53125 56.328125 C 85.539062 56.324219 85.542969 56.316406 85.554688 56.3125 C 85.558594 56.308594 85.5625 56.3125 85.570312 56.308594 C 85.578125 56.304688 85.582031 56.292969 85.589844 56.289062 C 85.601562 56.277344 85.613281 56.269531 85.625 56.257812 C 85.628906 56.253906 85.632812 56.253906 85.636719 56.25 C 86.96875 54.59375 88.488281 53.476562 89.828125 52.488281 C 92.019531 50.875 93.914062 49.480469 93.914062 46.496094 C 93.914062 45.0625 93.453125 43.828125 93.011719 42.632812 C 92.625 41.597656 92.261719 40.621094 92.261719 39.636719 C 92.261719 37.535156 93.289062 35.875 93.300781 35.859375 C 93.367188 35.753906 93.355469 35.613281 93.269531 35.519531 C 93.183594 35.425781 93.046875 35.402344 92.933594 35.460938 C 88.292969 37.835938 87.527344 43.550781 86.851562 48.589844 C 86.558594 50.800781 86.269531 52.910156 85.699219 54.628906 L 85.699219 29.820312 C 85.871094 29.3125 86.324219 28.796875 86.808594 28.25 C 87.492188 27.476562 88.25 26.609375 88.402344 25.539062 C 89.335938 25.902344 89.824219 26.53125 90.292969 27.144531 C 90.953125 28.011719 91.640625 28.910156 93.464844 28.910156 C 95.546875 28.910156 99.789062 25.925781 99.789062 22.460938 C 99.789062 21.019531 98.765625 19.535156 97.402344 19.007812 C 96.664062 18.722656 95.269531 18.503906 93.671875 19.851562 C 93.71875 19.53125 93.746094 19.1875 93.746094 18.8125 C 93.746094 15.414062 90.972656 13.535156 88.527344 11.878906 C 87.410156 11.121094 86.355469 10.40625 85.625 9.605469 C 85.617188 9.597656 85.605469 9.59375 85.597656 9.585938 C 85.585938 9.578125 85.578125 9.570312 85.566406 9.5625 C 85.519531 9.535156 85.472656 9.515625 85.417969 9.515625 C 85.363281 9.515625 85.3125 9.535156 85.269531 9.5625 C 85.257812 9.570312 85.25 9.578125 85.238281 9.585938 C 85.230469 9.59375 85.21875 9.597656 85.210938 9.605469 C 84.476562 10.40625 83.425781 11.121094 82.308594 11.875 C 79.863281 13.535156 77.089844 15.414062 77.089844 18.8125 C 77.089844 19.1875 77.117188 19.53125 77.164062 19.855469 C 75.5625 18.503906 74.164062 18.722656 73.425781 19.011719 C 72.066406 19.535156 71.039062 21.019531 71.039062 22.460938 C 71.039062 25.925781 75.285156 28.910156 77.371094 28.910156 Z M 81.335938 52.039062 C 79.179688 50.453125 77.480469 49.199219 77.480469 46.496094 C 77.480469 45.164062 77.921875 43.976562 78.347656 42.832031 C 78.753906 41.746094 79.132812 40.722656 79.132812 39.636719 C 79.132812 38.3125 78.765625 37.171875 78.453125 36.4375 C 82.113281 38.894531 82.777344 43.855469 83.417969 48.660156 C 83.710938 50.851562 83.992188 52.949219 84.558594 54.699219 C 83.480469 53.617188 82.355469 52.789062 81.335938 52.039062 Z M 87.40625 48.667969 C 88.050781 43.855469 88.714844 38.894531 92.378906 36.4375 C 92.0625 37.171875 91.695312 38.316406 91.695312 39.636719 C 91.695312 40.722656 92.078125 41.746094 92.480469 42.832031 C 92.90625 43.980469 93.347656 45.164062 93.347656 46.496094 C 93.347656 49.199219 91.648438 50.449219 89.492188 52.039062 C 88.472656 52.789062 87.347656 53.617188 86.269531 54.699219 C 86.835938 52.953125 87.113281 50.855469 87.40625 48.667969 Z M 86.386719 27.875 C 86.019531 28.292969 85.664062 28.691406 85.414062 29.109375 C 85.164062 28.695312 84.808594 28.292969 84.441406 27.878906 C 83.730469 27.074219 83 26.242188 82.960938 25.234375 C 83.242188 24.804688 83.730469 24.472656 84.257812 24.128906 C 84.664062 23.855469 85.082031 23.578125 85.414062 23.238281 C 85.746094 23.578125 86.164062 23.859375 86.570312 24.128906 C 87.09375 24.476562 87.585938 24.808594 87.863281 25.234375 C 87.824219 26.238281 87.097656 27.070312 86.386719 27.875 Z M 97.199219 19.53125 C 98.355469 19.980469 99.226562 21.238281 99.226562 22.457031 C 99.226562 25.734375 95.085938 28.347656 93.464844 28.347656 C 91.917969 28.347656 91.371094 27.632812 90.734375 26.804688 C 90.257812 26.179688 89.722656 25.480469 88.71875 25.054688 C 89.089844 24.789062 89.527344 24.554688 89.988281 24.308594 C 91.277344 23.617188 92.808594 22.789062 93.441406 20.851562 C 94.65625 19.535156 95.988281 19.0625 97.199219 19.53125 Z M 88.207031 12.34375 C 90.652344 14 93.179688 15.714844 93.179688 18.8125 C 93.179688 21.960938 91.421875 22.902344 89.71875 23.8125 C 89.167969 24.105469 88.644531 24.386719 88.203125 24.734375 C 87.859375 24.304688 87.363281 23.980469 86.882812 23.660156 C 86.449219 23.375 86.042969 23.097656 85.753906 22.769531 C 86.054688 22.160156 86.542969 21.660156 87.066406 21.132812 C 87.976562 20.230469 89.003906 19.203125 89.003906 17.4375 C 89.003906 15.671875 88.242188 14.496094 87.441406 13.25 C 86.960938 12.507812 86.472656 11.746094 86.070312 10.792969 C 86.707031 11.324219 87.441406 11.824219 88.207031 12.34375 Z M 85.414062 10.671875 C 85.863281 11.84375 86.445312 12.742188 86.96875 13.554688 C 87.757812 14.78125 88.441406 15.839844 88.441406 17.4375 C 88.441406 18.96875 87.582031 19.828125 86.671875 20.738281 C 86.21875 21.1875 85.753906 21.652344 85.414062 22.203125 C 85.074219 21.652344 84.609375 21.1875 84.15625 20.734375 C 83.242188 19.828125 82.382812 18.96875 82.382812 17.4375 C 82.382812 15.835938 83.066406 14.777344 83.859375 13.554688 C 84.382812 12.742188 84.964844 11.839844 85.414062 10.667969 Z M 82.621094 12.339844 C 83.386719 11.824219 84.121094 11.324219 84.757812 10.796875 C 84.351562 11.746094 83.863281 12.507812 83.386719 13.246094 C 82.582031 14.492188 81.820312 15.671875 81.820312 17.4375 C 81.820312 19.207031 82.847656 20.230469 83.757812 21.136719 C 84.28125 21.660156 84.773438 22.164062 85.074219 22.769531 C 84.78125 23.097656 84.378906 23.371094 83.945312 23.660156 C 83.460938 23.976562 82.964844 24.304688 82.617188 24.738281 C 82.179688 24.390625 81.65625 24.109375 81.105469 23.8125 C 79.40625 22.902344 77.648438 21.960938 77.648438 18.8125 C 77.648438 15.714844 80.175781 14 82.621094 12.34375 Z M 73.625 19.535156 C 74.839844 19.0625 76.171875 19.535156 77.386719 20.851562 C 78.019531 22.789062 79.550781 23.617188 80.839844 24.308594 C 81.296875 24.554688 81.734375 24.789062 82.105469 25.054688 C 81.101562 25.480469 80.566406 26.179688 80.089844 26.804688 C 79.457031 27.632812 78.910156 28.347656 77.367188 28.347656 C 75.742188 28.347656 71.597656 25.734375 71.597656 22.457031 C 71.597656 21.238281 72.46875 19.980469 73.625 19.535156 Z M 73.515625 17.148438 C 73.664062 17.113281 73.757812 16.960938 73.71875 16.808594 C 73.488281 15.851562 73.367188 14.875 73.367188 13.902344 C 73.367188 7.261719 78.773438 1.859375 85.414062 1.859375 C 92.058594 1.859375 97.460938 7.261719 97.460938 13.902344 C 97.460938 14.878906 97.339844 15.855469 97.101562 16.808594 C 97.066406 16.960938 97.15625 17.113281 97.308594 17.148438 C 97.332031 17.15625 97.351562 17.160156 97.375 17.160156 C 97.503906 17.160156 97.617188 17.074219 97.648438 16.945312 C 97.898438 15.949219 98.023438 14.925781 98.023438 13.902344 C 98.023438 6.953125 92.367188 1.296875 85.414062 1.296875 C 78.460938 1.296875 72.808594 6.953125 72.808594 13.902344 C 72.808594 14.917969 72.929688 15.941406 73.175781 16.941406 C 73.214844 17.09375 73.367188 17.1875 73.515625 17.148438 Z M 80.734375 55.964844 C 80.8125 55.964844 80.894531 55.925781 80.949219 55.859375 C 81.046875 55.738281 81.03125 55.5625 80.910156 55.464844 C 72.640625 48.738281 61.890625 44.042969 54.765625 44.042969 C 49.601562 44.042969 46.898438 47.34375 46.898438 50.605469 C 46.898438 52.167969 47.746094 53.648438 49.167969 54.566406 C 50.453125 55.398438 51.964844 55.597656 53.113281 55.082031 C 53.253906 55.019531 53.316406 54.851562 53.253906 54.710938 C 53.1875 54.570312 53.019531 54.507812 52.882812 54.570312 C 51.90625 55.007812 50.601562 54.824219 49.472656 54.097656 C 48.214844 53.28125 47.460938 51.976562 47.460938 50.605469 C 47.460938 47.714844 49.746094 44.605469 54.765625 44.605469 C 61.773438 44.605469 72.378906 49.25 80.554688 55.902344 C 80.605469 55.945312 80.671875 55.964844 80.734375 55.964844 Z M 80.734375 55.964844 " fill-opacity="1" fill-rule="nonzero"/></g><g clip-path="url(#9e2084117b)"><g transform="matrix(1, 0, 0, 1, 0, 112)"><g clip-path="url(#244eb579f3)"><g clip-path="url(#db5f92b087)"><path fill="#c4ccce" d="M 121.441406 2.902344 C 120.3125 2.171875 119.003906 1.988281 118.027344 2.425781 C 117.886719 2.492188 117.71875 2.425781 117.65625 2.285156 C 117.59375 2.144531 117.65625 1.976562 117.796875 1.914062 C 118.949219 1.398438 120.460938 1.597656 121.746094 2.429688 C 123.167969 3.351562 124.015625 4.832031 124.015625 6.390625 C 124.015625 9.652344 121.3125 12.957031 116.144531 12.957031 C 109.027344 12.957031 98.277344 8.257812 90 1.53125 C 89.878906 1.433594 89.859375 1.257812 89.957031 1.136719 C 90.011719 1.070312 90.09375 1.035156 90.175781 1.035156 C 90.238281 1.035156 90.300781 1.054688 90.351562 1.097656 C 98.539062 7.75 109.144531 12.394531 116.144531 12.394531 C 121.167969 12.394531 123.453125 9.28125 123.453125 6.390625 C 123.453125 5.023438 122.703125 3.71875 121.441406 2.902344 Z M 109.089844 36.785156 C 109.203125 36.890625 109.210938 37.070312 109.105469 37.183594 C 108.90625 37.394531 108.746094 38.269531 109.140625 39.1875 C 109.476562 39.957031 110.269531 40.875 112.148438 40.875 C 116.515625 40.875 121.230469 36.964844 121.230469 30.652344 C 121.230469 24.742188 118.128906 20.789062 115.308594 18.414062 C 120.808594 25.144531 119.203125 30.769531 118.511719 32.457031 C 117.601562 34.679688 115.972656 36.234375 114.546875 36.234375 C 113.242188 36.234375 112.328125 35.371094 112.328125 34.132812 C 112.328125 33.976562 112.453125 33.851562 112.609375 33.851562 C 112.761719 33.851562 112.890625 33.976562 112.890625 34.132812 C 112.890625 35.054688 113.554688 35.671875 114.546875 35.671875 C 115.5625 35.671875 117.070312 34.496094 117.992188 32.242188 C 118.71875 30.46875 120.503906 24.097656 112.980469 16.703125 C 112.976562 16.695312 112.972656 16.6875 112.96875 16.679688 C 112.957031 16.667969 112.945312 16.652344 112.933594 16.632812 C 112.925781 16.617188 112.921875 16.605469 112.914062 16.585938 C 112.910156 16.570312 112.90625 16.550781 112.90625 16.535156 C 112.902344 16.515625 112.902344 16.5 112.902344 16.480469 C 112.90625 16.464844 112.90625 16.445312 112.914062 16.429688 C 112.917969 16.410156 112.925781 16.394531 112.933594 16.375 C 112.9375 16.367188 112.9375 16.359375 112.941406 16.351562 C 112.945312 16.34375 112.953125 16.34375 112.960938 16.335938 C 112.96875 16.328125 112.96875 16.316406 112.980469 16.304688 C 112.992188 16.292969 113.011719 16.285156 113.027344 16.273438 C 113.039062 16.265625 113.046875 16.257812 113.058594 16.253906 C 113.097656 16.234375 113.136719 16.222656 113.179688 16.222656 C 113.226562 16.222656 113.269531 16.238281 113.3125 16.261719 C 113.320312 16.261719 113.324219 16.261719 113.328125 16.265625 C 116.492188 18.257812 121.792969 22.777344 121.792969 30.652344 C 121.792969 37.316406 116.785156 41.4375 112.148438 41.4375 C 109.851562 41.4375 108.957031 40.167969 108.628906 39.410156 C 108.175781 38.375 108.296875 37.226562 108.695312 36.800781 C 108.800781 36.6875 108.976562 36.679688 109.089844 36.785156 Z M 121.988281 15.15625 C 122.605469 14.53125 123.429688 14.1875 124.304688 14.1875 C 125.179688 14.1875 126 14.53125 126.617188 15.15625 C 129.363281 17.886719 129.324219 22.039062 129.320312 22.214844 C 129.320312 22.367188 129.195312 22.492188 129.042969 22.492188 C 128.871094 22.492188 124.730469 22.519531 121.984375 19.789062 C 120.710938 18.503906 120.710938 16.425781 121.984375 15.15625 Z M 122.382812 19.390625 C 124.5625 21.554688 127.785156 21.875 128.753906 21.921875 C 128.710938 20.953125 128.398438 17.71875 126.21875 15.550781 C 125.707031 15.035156 125.027344 14.75 124.304688 14.75 C 123.582031 14.75 122.898438 15.035156 122.386719 15.554688 C 121.328125 16.605469 121.328125 18.324219 122.386719 19.390625 Z M 94.011719 2.34375 C 93.902344 2.269531 93.859375 2.128906 93.914062 2.003906 C 93.964844 1.882812 94.089844 1.8125 94.226562 1.839844 C 96.039062 2.199219 97.414062 2 98.871094 1.789062 C 99.796875 1.65625 100.742188 1.519531 101.832031 1.519531 C 102.535156 1.519531 103.296875 1.574219 104.15625 1.726562 C 106.203125 2.082031 107.386719 3.175781 108.53125 4.230469 C 109.441406 5.066406 110.304688 5.859375 111.535156 6.175781 C 111.664062 6.207031 111.75 6.324219 111.746094 6.457031 C 111.742188 6.585938 111.648438 6.699219 111.519531 6.722656 C 108.257812 7.367188 101.644531 7.652344 94.011719 2.34375 Z M 108.152344 4.644531 C 107.066406 3.644531 105.941406 2.609375 104.058594 2.28125 C 101.960938 1.910156 100.429688 2.132812 98.949219 2.34375 C 98.054688 2.476562 97.183594 2.597656 96.226562 2.597656 C 95.945312 2.597656 95.652344 2.589844 95.351562 2.5625 C 101.65625 6.585938 107.132812 6.777344 110.382812 6.34375 C 109.535156 5.917969 108.859375 5.292969 108.152344 4.644531 Z M 127.03125 10.863281 C 127.019531 10.855469 127.003906 10.847656 126.992188 10.832031 L 126.980469 10.820312 L 126.976562 10.8125 C 126.96875 10.800781 126.960938 10.789062 126.953125 10.777344 C 126.949219 10.765625 126.941406 10.757812 126.933594 10.746094 C 126.921875 10.714844 126.914062 10.679688 126.914062 10.644531 L 126.914062 10.632812 L 126.917969 10.625 L 126.917969 10.613281 C 126.921875 10.589844 126.921875 10.566406 126.929688 10.542969 L 126.933594 10.539062 C 126.945312 10.507812 126.964844 10.476562 126.988281 10.453125 L 126.992188 10.445312 C 127.777344 9.625 128.472656 8.523438 129.148438 7.457031 C 129.886719 6.285156 130.652344 5.078125 131.53125 4.25 C 132.703125 3.152344 134.226562 2.523438 135.453125 2.015625 C 136.144531 1.730469 136.742188 1.480469 137.175781 1.203125 C 137.222656 1.171875 137.273438 1.160156 137.328125 1.160156 C 137.40625 1.160156 137.484375 1.191406 137.539062 1.257812 C 137.632812 1.363281 137.628906 1.519531 137.539062 1.625 C 137.046875 2.191406 136.582031 2.949219 136.089844 3.753906 C 135.46875 4.769531 134.824219 5.820312 134.054688 6.578125 C 133.058594 7.554688 131.230469 8.601562 129.617188 9.523438 C 129.136719 9.796875 128.679688 10.058594 128.257812 10.3125 C 132.488281 9.996094 138.394531 7.921875 144.621094 5.726562 C 151.542969 3.289062 158.703125 0.765625 163.640625 0.765625 C 167.210938 0.765625 169.207031 2.515625 169.886719 4.152344 C 170.523438 5.679688 170.195312 7.300781 169.015625 8.484375 C 167.667969 9.828125 166.355469 9.730469 165.691406 9.554688 C 164.761719 9.304688 163.992188 8.589844 163.777344 7.78125 C 163.617188 7.183594 163.769531 6.613281 164.207031 6.179688 C 164.316406 6.070312 164.496094 6.070312 164.605469 6.179688 C 164.714844 6.289062 164.714844 6.464844 164.605469 6.574219 C 164.234375 6.945312 164.246094 7.355469 164.320312 7.636719 C 164.488281 8.257812 165.097656 8.808594 165.835938 9.007812 C 166.382812 9.15625 167.46875 9.230469 168.617188 8.085938 C 169.632812 7.070312 169.914062 5.679688 169.367188 4.367188 C 168.757812 2.898438 166.933594 1.328125 163.640625 1.328125 C 158.796875 1.328125 151.6875 3.832031 144.808594 6.257812 C 139.042969 8.289062 133.554688 10.214844 129.355469 10.761719 C 130.871094 10.996094 132.488281 11.15625 134.074219 11.300781 C 136.734375 11.550781 139.488281 11.804688 141.660156 12.460938 C 144.558594 13.335938 147.003906 15.019531 148.964844 16.371094 C 149.96875 17.0625 150.914062 17.714844 151.75 18.144531 C 151.875 18.207031 151.933594 18.355469 151.890625 18.484375 C 151.84375 18.617188 151.707031 18.695312 151.570312 18.671875 C 150.242188 18.421875 148.65625 18.289062 146.976562 18.144531 C 144.601562 17.945312 142.140625 17.734375 140.136719 17.179688 C 137.410156 16.429688 133.730469 14.445312 130.484375 12.691406 C 129.246094 12.027344 128.082031 11.394531 127.070312 10.890625 C 127.054688 10.882812 127.046875 10.871094 127.035156 10.863281 Z M 129.335938 9.035156 C 130.921875 8.128906 132.71875 7.101562 133.660156 6.179688 C 134.378906 5.46875 135.003906 4.449219 135.609375 3.460938 C 135.871094 3.035156 136.125 2.621094 136.382812 2.234375 C 136.15625 2.332031 135.917969 2.433594 135.667969 2.535156 C 134.425781 3.050781 133.011719 3.632812 131.917969 4.660156 C 131.089844 5.4375 130.378906 6.566406 129.621094 7.757812 C 129.242188 8.359375 128.851562 8.976562 128.441406 9.550781 C 128.730469 9.382812 129.03125 9.210938 129.335938 9.035156 Z M 130.75 12.199219 C 133.96875 13.9375 137.621094 15.90625 140.285156 16.636719 C 142.242188 17.179688 144.671875 17.386719 147.023438 17.585938 C 148.144531 17.683594 149.222656 17.773438 150.21875 17.898438 C 149.714844 17.574219 149.1875 17.210938 148.644531 16.835938 C 146.613281 15.4375 144.3125 13.847656 141.496094 13 C 139.378906 12.359375 136.652344 12.105469 134.019531 11.863281 C 132.359375 11.710938 130.660156 11.550781 129.070312 11.296875 C 129.609375 11.582031 130.171875 11.886719 130.75 12.199219 Z M 98.625 16.347656 C 99.402344 15.328125 100.566406 14.777344 101.882812 14.777344 C 102.070312 14.777344 102.261719 14.792969 102.457031 14.816406 C 102.90625 14.570312 103.433594 14.441406 104 14.441406 C 104.449219 14.441406 104.921875 14.519531 105.394531 14.679688 C 106.820312 15.160156 108.007812 16.277344 108.578125 17.671875 C 108.972656 18.648438 109.109375 19.859375 109.238281 21.03125 C 109.445312 22.878906 109.636719 24.621094 110.761719 25.386719 C 110.839844 25.4375 110.882812 25.523438 110.886719 25.613281 C 110.886719 25.703125 110.84375 25.792969 110.769531 25.84375 C 109.269531 26.941406 107.277344 26.695312 106 25.902344 C 105.507812 26.972656 104.796875 27.976562 103.832031 28.816406 C 103.75 28.886719 103.640625 28.90625 103.546875 28.867188 C 103.449219 28.832031 103.378906 28.742188 103.367188 28.640625 C 103.21875 27.515625 102.292969 26.585938 101.222656 25.503906 C 100.144531 24.417969 98.925781 23.191406 98.191406 21.464844 C 97.417969 19.625 97.578125 17.710938 98.621094 16.347656 Z M 110.125 25.59375 C 109.070312 24.605469 108.871094 22.824219 108.679688 21.09375 C 108.554688 19.960938 108.425781 18.789062 108.054688 17.886719 C 107.550781 16.640625 106.488281 15.640625 105.214844 15.210938 C 104.59375 15 103.984375 14.964844 103.441406 15.070312 C 104.824219 15.617188 105.941406 16.960938 106.511719 18.855469 C 107.070312 20.710938 107.082031 23.15625 106.21875 25.378906 C 107.242188 26.054688 108.839844 26.320312 110.125 25.59375 Z M 98.710938 21.246094 C 99.398438 22.871094 100.582031 24.058594 101.621094 25.109375 C 102.613281 26.109375 103.492188 26.992188 103.816406 28.066406 C 106.398438 25.523438 106.765625 21.648438 105.972656 19.019531 C 105.347656 16.945312 104.039062 15.585938 102.472656 15.378906 C 101.089844 15.1875 99.851562 15.667969 99.070312 16.6875 C 98.148438 17.890625 98.015625 19.59375 98.710938 21.246094 Z M 46.691406 14.1875 L 46.695312 14.1875 C 47.570312 14.1875 48.394531 14.53125 49.011719 15.152344 C 50.285156 16.421875 50.285156 18.5 49.011719 19.789062 C 46.273438 22.519531 42.121094 22.503906 41.953125 22.492188 C 41.800781 22.492188 41.675781 22.367188 41.675781 22.214844 C 41.671875 22.039062 41.640625 17.886719 44.382812 15.15625 C 44.996094 14.53125 45.820312 14.1875 46.691406 14.1875 Z M 48.613281 19.390625 C 49.667969 18.324219 49.667969 16.601562 48.613281 15.550781 C 48.101562 15.035156 47.421875 14.75 46.695312 14.75 L 46.691406 14.75 C 45.96875 14.75 45.289062 15.035156 44.777344 15.550781 C 42.605469 17.714844 42.289062 20.949219 42.242188 21.921875 C 43.214844 21.875 46.441406 21.554688 48.613281 19.390625 Z M 60.109375 25.613281 C 60.113281 25.519531 60.15625 25.4375 60.234375 25.386719 C 61.363281 24.621094 61.554688 22.875 61.761719 21.027344 C 61.894531 19.855469 62.027344 18.648438 62.425781 17.675781 C 62.988281 16.28125 64.175781 15.160156 65.601562 14.679688 C 66.074219 14.519531 66.546875 14.4375 66.996094 14.4375 C 67.5625 14.4375 68.089844 14.566406 68.539062 14.816406 C 68.710938 14.796875 68.878906 14.78125 69.042969 14.78125 C 70.390625 12.578125 71.769531 10.773438 73.136719 9.417969 C 73.191406 9.363281 73.265625 9.335938 73.335938 9.335938 C 73.40625 9.335938 73.480469 9.363281 73.535156 9.417969 C 73.644531 9.53125 73.644531 9.707031 73.53125 9.816406 C 72.25 11.085938 70.957031 12.769531 69.683594 14.816406 C 70.765625 14.953125 71.710938 15.480469 72.371094 16.347656 C 73.417969 17.710938 73.578125 19.625 72.800781 21.464844 C 72.070312 23.191406 70.851562 24.417969 69.777344 25.5 C 68.703125 26.582031 67.777344 27.515625 67.632812 28.640625 C 67.621094 28.742188 67.550781 28.832031 67.453125 28.867188 C 67.359375 28.902344 67.25 28.882812 67.171875 28.816406 C 66.203125 27.976562 65.492188 26.972656 65 25.902344 C 63.722656 26.695312 61.726562 26.9375 60.226562 25.84375 C 60.152344 25.792969 60.105469 25.703125 60.109375 25.613281 Z M 67.183594 28.0625 C 67.507812 26.988281 68.386719 26.105469 69.378906 25.105469 C 70.417969 24.058594 71.59375 22.871094 72.285156 21.246094 C 72.980469 19.59375 72.847656 17.890625 71.925781 16.6875 C 71.144531 15.667969 69.902344 15.191406 68.523438 15.378906 L 68.519531 15.378906 C 66.957031 15.585938 65.652344 16.945312 65.027344 19.015625 C 64.238281 21.644531 64.601562 25.523438 67.183594 28.0625 Z M 64.785156 25.375 C 63.921875 23.152344 63.929688 20.707031 64.488281 18.851562 C 65.058594 16.960938 66.175781 15.613281 67.554688 15.066406 C 67.011719 14.964844 66.402344 15 65.78125 15.210938 C 64.507812 15.640625 63.449219 16.636719 62.945312 17.882812 C 62.578125 18.785156 62.449219 19.957031 62.320312 21.089844 C 62.128906 22.820312 61.929688 24.605469 60.871094 25.59375 C 62.160156 26.320312 63.761719 26.054688 64.785156 25.378906 Z M 7.355469 0.765625 C 12.296875 0.765625 19.460938 3.289062 26.386719 5.730469 C 32.609375 7.921875 38.511719 9.996094 42.742188 10.3125 C 42.320312 10.0625 41.867188 9.800781 41.390625 9.527344 C 39.777344 8.605469 37.945312 7.554688 36.949219 6.578125 C 36.179688 5.820312 35.535156 4.769531 34.914062 3.753906 C 34.421875 2.953125 33.957031 2.191406 33.464844 1.625 C 33.371094 1.519531 33.371094 1.363281 33.464844 1.257812 C 33.519531 1.195312 33.597656 1.160156 33.675781 1.160156 C 33.730469 1.160156 33.78125 1.175781 33.828125 1.203125 C 34.261719 1.484375 34.859375 1.730469 35.550781 2.015625 C 36.777344 2.523438 38.300781 3.152344 39.472656 4.25 C 40.355469 5.078125 41.117188 6.292969 41.859375 7.460938 C 42.53125 8.527344 43.226562 9.628906 44.007812 10.445312 L 44.007812 10.453125 C 44.03125 10.476562 44.050781 10.507812 44.0625 10.539062 L 44.066406 10.542969 C 44.074219 10.566406 44.078125 10.589844 44.078125 10.617188 L 44.082031 10.621094 L 44.082031 10.632812 L 44.085938 10.640625 C 44.082031 10.679688 44.078125 10.714844 44.0625 10.746094 C 44.058594 10.757812 44.050781 10.765625 44.042969 10.773438 C 44.039062 10.789062 44.03125 10.800781 44.023438 10.8125 L 44.019531 10.820312 L 44.015625 10.820312 L 44.007812 10.832031 C 43.992188 10.84375 43.980469 10.851562 43.964844 10.863281 C 43.953125 10.871094 43.945312 10.882812 43.929688 10.890625 C 42.914062 11.398438 41.746094 12.03125 40.503906 12.699219 C 37.261719 14.449219 33.585938 16.433594 30.871094 17.179688 C 28.863281 17.734375 26.40625 17.945312 24.027344 18.144531 C 22.347656 18.289062 20.761719 18.421875 19.433594 18.671875 C 19.296875 18.695312 19.160156 18.621094 19.113281 18.488281 C 19.070312 18.355469 19.128906 18.207031 19.253906 18.144531 C 20.085938 17.714844 21.027344 17.066406 22.027344 16.378906 C 23.992188 15.023438 26.4375 13.335938 29.34375 12.460938 C 31.515625 11.804688 34.265625 11.546875 36.929688 11.300781 C 38.511719 11.15625 40.128906 10.996094 41.644531 10.761719 C 37.445312 10.214844 31.960938 8.289062 26.203125 6.257812 C 19.320312 3.835938 12.203125 1.328125 7.355469 1.328125 C 4.066406 1.328125 2.242188 2.898438 1.632812 4.363281 C 1.089844 5.675781 1.371094 7.066406 2.386719 8.085938 C 3.53125 9.230469 4.617188 9.15625 5.164062 9.011719 C 5.90625 8.8125 6.515625 8.257812 6.683594 7.636719 C 6.757812 7.355469 6.769531 6.945312 6.402344 6.574219 C 6.292969 6.464844 6.292969 6.289062 6.402344 6.179688 C 6.511719 6.070312 6.6875 6.070312 6.796875 6.179688 C 7.234375 6.613281 7.386719 7.183594 7.226562 7.78125 C 7.011719 8.589844 6.242188 9.304688 5.308594 9.554688 C 4.648438 9.730469 3.335938 9.828125 1.988281 8.484375 C 0.804688 7.296875 0.480469 5.679688 1.113281 4.148438 C 1.792969 2.515625 3.789062 0.765625 7.355469 0.765625 Z M 41.382812 7.761719 C 40.625 6.570312 39.914062 5.441406 39.085938 4.660156 C 37.988281 3.632812 36.578125 3.050781 35.335938 2.535156 C 35.082031 2.433594 34.84375 2.332031 34.621094 2.234375 C 34.878906 2.621094 35.132812 3.035156 35.390625 3.460938 C 35.996094 4.449219 36.621094 5.46875 37.34375 6.175781 C 38.285156 7.101562 40.085938 8.132812 41.671875 9.039062 C 41.972656 9.214844 42.273438 9.386719 42.558594 9.550781 C 42.148438 8.980469 41.761719 8.363281 41.382812 7.761719 Z M 36.976562 11.863281 C 34.34375 12.105469 31.621094 12.359375 29.503906 13 C 26.683594 13.847656 24.378906 15.441406 22.34375 16.84375 C 21.804688 17.214844 21.28125 17.574219 20.777344 17.898438 C 21.773438 17.773438 22.855469 17.683594 23.976562 17.585938 C 26.328125 17.386719 28.761719 17.183594 30.71875 16.636719 C 33.375 15.910156 37.019531 13.941406 40.234375 12.203125 C 40.816406 11.890625 41.382812 11.585938 41.925781 11.296875 C 40.339844 11.550781 38.640625 11.707031 36.976562 11.863281 Z M 57.675781 16.265625 C 57.679688 16.261719 57.6875 16.261719 57.691406 16.257812 C 57.734375 16.238281 57.777344 16.222656 57.824219 16.222656 C 57.867188 16.222656 57.90625 16.234375 57.945312 16.253906 C 57.957031 16.257812 57.964844 16.265625 57.976562 16.273438 C 57.992188 16.285156 58.011719 16.292969 58.023438 16.304688 C 58.035156 16.316406 58.035156 16.328125 58.042969 16.335938 C 58.050781 16.34375 58.058594 16.347656 58.0625 16.351562 C 58.066406 16.359375 58.066406 16.367188 58.070312 16.375 C 58.078125 16.394531 58.085938 16.410156 58.089844 16.429688 C 58.097656 16.445312 58.097656 16.464844 58.101562 16.480469 C 58.101562 16.5 58.101562 16.515625 58.097656 16.535156 C 58.097656 16.550781 58.09375 16.570312 58.089844 16.585938 C 58.085938 16.601562 58.078125 16.617188 58.070312 16.632812 C 58.058594 16.652344 58.046875 16.667969 58.035156 16.683594 C 58.03125 16.6875 58.027344 16.695312 58.019531 16.703125 C 50.496094 24.097656 52.28125 30.464844 53.007812 32.242188 C 53.929688 34.496094 55.441406 35.671875 56.457031 35.671875 C 57.449219 35.671875 58.113281 35.054688 58.113281 34.132812 C 58.113281 33.976562 58.238281 33.851562 58.394531 33.851562 C 58.550781 33.851562 58.675781 33.976562 58.675781 34.132812 C 58.675781 35.371094 57.761719 36.234375 56.457031 36.234375 C 55.03125 36.234375 53.398438 34.679688 52.488281 32.457031 C 51.800781 30.769531 50.195312 25.144531 55.695312 18.414062 C 52.875 20.789062 49.773438 24.742188 49.773438 30.652344 C 49.773438 36.964844 54.484375 40.875 58.847656 40.875 C 60.730469 40.875 61.523438 39.953125 61.859375 39.179688 C 62.257812 38.265625 62.09375 37.394531 61.898438 37.183594 C 61.792969 37.070312 61.796875 36.890625 61.910156 36.785156 C 62.023438 36.683594 62.203125 36.6875 62.308594 36.800781 C 62.703125 37.222656 62.824219 38.371094 62.375 39.40625 C 62.046875 40.164062 61.148438 41.4375 58.847656 41.4375 C 54.214844 41.4375 49.210938 37.316406 49.210938 30.652344 C 49.210938 22.777344 54.511719 18.257812 57.675781 16.265625 Z M 59.480469 6.722656 C 59.351562 6.699219 59.257812 6.585938 59.253906 6.457031 C 59.25 6.324219 59.335938 6.207031 59.464844 6.175781 C 60.699219 5.859375 61.558594 5.070312 62.46875 4.230469 C 63.613281 3.175781 64.796875 2.082031 66.847656 1.726562 C 67.703125 1.574219 68.464844 1.519531 69.164062 1.519531 C 70.253906 1.519531 71.199219 1.652344 72.125 1.789062 C 73.582031 1.996094 74.957031 2.195312 76.769531 1.839844 C 76.902344 1.8125 77.03125 1.882812 77.082031 2.003906 C 77.132812 2.125 77.09375 2.269531 76.984375 2.34375 C 69.355469 7.652344 62.742188 7.367188 59.480469 6.722656 Z M 75.644531 2.5625 C 74.320312 2.671875 73.207031 2.511719 72.046875 2.34375 C 70.566406 2.128906 69.035156 1.910156 66.945312 2.28125 C 65.058594 2.609375 63.9375 3.640625 62.851562 4.640625 C 62.144531 5.292969 61.464844 5.914062 60.617188 6.339844 C 63.867188 6.773438 69.34375 6.585938 75.644531 2.5625 Z M 77.453125 28.085938 C 79.273438 28.085938 79.960938 28.984375 80.625 29.851562 C 81.09375 30.464844 81.578125 31.09375 82.507812 31.460938 C 82.664062 30.386719 83.421875 29.519531 84.105469 28.746094 C 84.589844 28.199219 85.042969 27.683594 85.21875 27.175781 L 85.21875 2.363281 C 84.644531 4.085938 84.359375 6.199219 84.0625 8.410156 C 83.386719 13.449219 82.625 19.160156 77.980469 21.535156 C 77.871094 21.59375 77.730469 21.570312 77.644531 21.476562 C 77.558594 21.382812 77.546875 21.242188 77.617188 21.136719 C 77.628906 21.121094 78.65625 19.46875 78.65625 17.359375 C 78.65625 16.375 78.292969 15.398438 77.90625 14.363281 C 77.460938 13.167969 77.003906 11.933594 77.003906 10.5 C 77.003906 7.515625 78.894531 6.121094 81.089844 4.507812 C 82.429688 3.519531 83.945312 2.402344 85.28125 0.746094 C 85.285156 0.742188 85.289062 0.742188 85.292969 0.738281 C 85.304688 0.726562 85.3125 0.71875 85.328125 0.707031 C 85.335938 0.703125 85.339844 0.691406 85.347656 0.6875 C 85.351562 0.683594 85.359375 0.6875 85.363281 0.683594 C 85.371094 0.679688 85.378906 0.671875 85.386719 0.667969 C 85.421875 0.652344 85.460938 0.644531 85.5 0.644531 L 85.503906 0.644531 C 85.542969 0.644531 85.582031 0.652344 85.613281 0.667969 C 85.625 0.671875 85.628906 0.679688 85.636719 0.683594 C 85.644531 0.6875 85.648438 0.683594 85.652344 0.6875 C 85.664062 0.691406 85.667969 0.703125 85.675781 0.707031 C 85.6875 0.71875 85.699219 0.726562 85.710938 0.738281 C 85.710938 0.742188 85.71875 0.742188 85.71875 0.746094 C 87.054688 2.402344 88.574219 3.519531 89.914062 4.507812 C 92.105469 6.121094 94 7.515625 94 10.5 C 94 11.933594 93.539062 13.167969 93.09375 14.363281 C 92.710938 15.398438 92.347656 16.375 92.347656 17.359375 C 92.347656 19.460938 93.375 21.121094 93.386719 21.136719 C 93.453125 21.242188 93.441406 21.382812 93.355469 21.476562 C 93.269531 21.570312 93.132812 21.59375 93.019531 21.535156 C 88.378906 19.160156 87.613281 13.445312 86.9375 8.40625 C 86.644531 6.195312 86.355469 4.085938 85.78125 2.367188 L 85.78125 27.175781 C 85.957031 27.683594 86.410156 28.199219 86.894531 28.746094 C 87.578125 29.519531 88.335938 30.386719 88.488281 31.460938 C 89.421875 31.09375 89.90625 30.464844 90.375 29.851562 C 91.039062 28.984375 91.726562 28.085938 93.550781 28.085938 C 95.632812 28.085938 99.875 31.070312 99.875 34.539062 C 99.875 35.976562 98.851562 37.460938 97.488281 37.988281 C 96.75 38.273438 95.355469 38.492188 93.757812 37.144531 C 93.804688 37.46875 93.832031 37.808594 93.832031 38.183594 C 93.832031 41.582031 91.058594 43.460938 88.613281 45.117188 C 87.496094 45.875 86.441406 46.589844 85.710938 47.390625 C 85.703125 47.398438 85.691406 47.402344 85.679688 47.410156 C 85.671875 47.417969 85.664062 47.425781 85.652344 47.433594 C 85.605469 47.460938 85.558594 47.480469 85.503906 47.480469 C 85.449219 47.480469 85.398438 47.460938 85.355469 47.433594 C 85.34375 47.425781 85.335938 47.417969 85.324219 47.410156 C 85.316406 47.402344 85.304688 47.398438 85.296875 47.390625 C 84.5625 46.589844 83.511719 45.875 82.394531 45.121094 C 79.949219 43.460938 77.175781 41.582031 77.175781 38.183594 C 77.175781 37.808594 77.203125 37.464844 77.25 37.144531 C 75.648438 38.492188 74.25 38.273438 73.511719 37.988281 C 72.152344 37.460938 71.125 35.976562 71.125 34.539062 C 71.125 31.070312 75.371094 28.085938 77.457031 28.085938 Z M 81.421875 4.957031 C 79.265625 6.546875 77.566406 7.796875 77.566406 10.5 C 77.566406 11.832031 78.007812 13.019531 78.433594 14.167969 C 78.839844 15.25 79.21875 16.273438 79.21875 17.359375 C 79.21875 18.683594 78.851562 19.824219 78.535156 20.558594 C 82.199219 18.101562 82.863281 13.144531 83.503906 8.335938 C 83.796875 6.144531 84.078125 4.046875 84.640625 2.296875 C 83.566406 3.378906 82.441406 4.207031 81.421875 4.957031 Z M 87.492188 8.328125 C 88.136719 13.140625 88.800781 18.101562 92.464844 20.558594 C 92.148438 19.824219 91.78125 18.683594 91.78125 17.359375 C 91.78125 16.273438 92.164062 15.25 92.566406 14.164062 C 92.992188 13.019531 93.433594 11.832031 93.433594 10.5 C 93.433594 7.796875 91.734375 6.546875 89.578125 4.960938 C 88.558594 4.207031 87.433594 3.378906 86.355469 2.296875 C 86.917969 4.046875 87.199219 6.140625 87.492188 8.328125 Z M 86.46875 29.121094 C 86.101562 28.703125 85.75 28.304688 85.5 27.890625 C 85.25 28.304688 84.894531 28.703125 84.527344 29.117188 C 83.816406 29.921875 83.085938 30.757812 83.046875 31.761719 C 83.324219 32.191406 83.816406 32.523438 84.339844 32.871094 C 84.75 33.140625 85.167969 33.417969 85.5 33.757812 C 85.828125 33.417969 86.25 33.136719 86.65625 32.867188 C 87.179688 32.519531 87.667969 32.191406 87.949219 31.761719 C 87.910156 30.757812 87.179688 29.925781 86.46875 29.121094 Z M 97.285156 37.464844 C 98.4375 37.015625 99.3125 35.757812 99.3125 34.539062 C 99.3125 31.261719 95.171875 28.648438 93.546875 28.648438 C 92 28.648438 91.453125 29.363281 90.820312 30.191406 C 90.34375 30.816406 89.808594 31.515625 88.804688 31.941406 C 89.175781 32.207031 89.613281 32.441406 90.070312 32.6875 C 91.363281 33.378906 92.894531 34.207031 93.527344 36.144531 C 94.742188 37.460938 96.070312 37.933594 97.285156 37.464844 Z M 88.292969 44.652344 C 90.738281 42.996094 93.265625 41.28125 93.265625 38.183594 C 93.265625 35.039062 91.507812 34.097656 89.804688 33.183594 C 89.253906 32.890625 88.730469 32.609375 88.289062 32.261719 C 87.945312 32.691406 87.449219 33.019531 86.96875 33.335938 C 86.535156 33.625 86.128906 33.898438 85.839844 34.230469 C 86.140625 34.835938 86.628906 35.335938 87.152344 35.863281 C 88.0625 36.765625 89.089844 37.792969 89.089844 39.558594 C 89.089844 41.324219 88.328125 42.5 87.527344 43.746094 C 87.046875 44.488281 86.554688 45.25 86.152344 46.203125 C 86.789062 45.671875 87.527344 45.171875 88.292969 44.652344 Z M 85.5 46.324219 C 85.945312 45.152344 86.527344 44.253906 87.054688 43.441406 C 87.84375 42.214844 88.527344 41.160156 88.527344 39.558594 C 88.527344 38.027344 87.664062 37.167969 86.753906 36.257812 C 86.304688 35.808594 85.839844 35.34375 85.5 34.796875 C 85.160156 35.34375 84.695312 35.808594 84.242188 36.261719 C 83.328125 37.167969 82.46875 38.027344 82.46875 39.558594 C 82.46875 41.160156 83.152344 42.21875 83.945312 43.445312 C 84.46875 44.253906 85.050781 45.15625 85.5 46.328125 Z M 82.707031 44.65625 C 83.472656 45.175781 84.207031 45.671875 84.839844 46.199219 C 84.4375 45.25 83.949219 44.488281 83.46875 43.75 C 82.664062 42.503906 81.90625 41.324219 81.90625 39.558594 C 81.90625 37.789062 82.933594 36.765625 83.84375 35.859375 C 84.367188 35.335938 84.859375 34.835938 85.160156 34.226562 C 84.867188 33.898438 84.460938 33.625 84.03125 33.339844 C 83.546875 33.019531 83.050781 32.691406 82.703125 32.261719 C 82.265625 32.605469 81.742188 32.890625 81.191406 33.183594 C 79.492188 34.09375 77.734375 35.035156 77.734375 38.183594 C 77.734375 41.285156 80.261719 43 82.707031 44.65625 Z M 73.710938 37.464844 C 74.925781 37.933594 76.257812 37.464844 77.472656 36.144531 C 78.105469 34.207031 79.636719 33.378906 80.925781 32.6875 C 81.382812 32.441406 81.820312 32.207031 82.191406 31.941406 C 81.1875 31.515625 80.652344 30.816406 80.175781 30.191406 C 79.542969 29.363281 78.996094 28.648438 77.453125 28.648438 C 75.828125 28.648438 71.683594 31.261719 71.683594 34.539062 C 71.683594 35.757812 72.554688 37.015625 73.710938 37.464844 Z M 73.597656 39.847656 C 73.75 39.882812 73.84375 40.035156 73.804688 40.1875 C 73.570312 41.144531 73.453125 42.121094 73.453125 43.09375 C 73.453125 49.734375 78.859375 55.136719 85.5 55.136719 C 92.140625 55.136719 97.546875 49.734375 97.546875 43.09375 C 97.546875 42.117188 97.425781 41.140625 97.1875 40.1875 C 97.152344 40.039062 97.242188 39.882812 97.394531 39.847656 C 97.417969 39.839844 97.4375 39.839844 97.460938 39.839844 C 97.585938 39.839844 97.703125 39.925781 97.734375 40.050781 C 97.984375 41.050781 98.109375 42.074219 98.109375 43.09375 C 98.109375 50.046875 92.453125 55.699219 85.5 55.699219 C 78.546875 55.699219 72.894531 50.042969 72.894531 43.09375 C 72.894531 42.078125 73.015625 41.054688 73.261719 40.054688 C 73.296875 39.902344 73.453125 39.808594 73.601562 39.847656 Z M 80.816406 1.035156 C 80.898438 1.035156 80.980469 1.070312 81.035156 1.136719 C 81.132812 1.257812 81.117188 1.433594 80.996094 1.53125 C 72.726562 8.257812 61.976562 12.957031 54.851562 12.957031 C 49.6875 12.957031 46.984375 9.652344 46.984375 6.390625 C 46.984375 4.828125 47.832031 3.347656 49.253906 2.429688 C 50.539062 1.597656 52.050781 1.398438 53.195312 1.914062 C 53.339844 1.976562 53.402344 2.144531 53.339844 2.285156 C 53.273438 2.425781 53.105469 2.488281 52.96875 2.425781 C 51.992188 1.988281 50.6875 2.171875 49.558594 2.898438 C 48.296875 3.71875 47.546875 5.023438 47.546875 6.390625 C 47.546875 9.28125 49.832031 12.390625 54.851562 12.390625 C 61.859375 12.390625 72.460938 7.746094 80.640625 1.097656 C 80.691406 1.054688 80.757812 1.03125 80.816406 1.03125 Z M 80.816406 1.035156 " fill-opacity="1" fill-rule="nonzero"/></g></g></g></g><g fill="#c4ccce" fill-opacity="1"><g transform="translate(7.765073, 94.208992)"><g><path d="M 0.875 -28.265625 L 0.875 -28.625 C 1.863281 -28.851562 2.863281 -29.222656 3.875 -29.734375 C 4.882812 -30.242188 5.738281 -30.78125 6.4375 -31.34375 L 6.75 -31.34375 L 6.75 -9.90625 C 6.75 -7.71875 6.804688 -5.910156 6.921875 -4.484375 C 7.035156 -3.066406 7.332031 -2.019531 7.8125 -1.34375 C 8.300781 -0.675781 9.101562 -0.34375 10.21875 -0.34375 L 10.21875 0 L 0.875 0 L 0.875 -0.34375 C 1.988281 -0.34375 2.785156 -0.675781 3.265625 -1.34375 C 3.742188 -2.019531 4.039062 -3.066406 4.15625 -4.484375 C 4.28125 -5.910156 4.34375 -7.71875 4.34375 -9.90625 L 4.34375 -20.78125 C 4.34375 -22.90625 4.289062 -24.5 4.1875 -25.5625 C 4.082031 -26.632812 3.796875 -27.351562 3.328125 -27.71875 C 2.859375 -28.082031 2.039062 -28.265625 0.875 -28.265625 Z M 0.875 -28.265625 "/></g></g></g><g fill="#c4ccce" fill-opacity="1"><g transform="translate(18.85071, 94.208992)"><g><path d="M 11.4375 0.65625 C 9.832031 0.65625 8.328125 0.226562 6.921875 -0.625 C 5.523438 -1.488281 4.382812 -2.742188 3.5 -4.390625 C 2.625 -6.046875 2.1875 -8.0625 2.1875 -10.4375 C 2.1875 -12.65625 2.582031 -14.585938 3.375 -16.234375 C 4.164062 -17.890625 5.257812 -19.175781 6.65625 -20.09375 C 8.0625 -21.007812 9.65625 -21.46875 11.4375 -21.46875 C 12.8125 -21.46875 14.015625 -21.21875 15.046875 -20.71875 C 16.085938 -20.226562 16.953125 -19.59375 17.640625 -18.8125 C 18.328125 -18.039062 18.84375 -17.207031 19.1875 -16.3125 C 19.539062 -15.425781 19.71875 -14.578125 19.71875 -13.765625 C 19.71875 -13.003906 19.535156 -12.414062 19.171875 -12 C 18.804688 -11.59375 18.375 -11.304688 17.875 -11.140625 C 17.382812 -10.984375 16.957031 -10.898438 16.59375 -10.890625 C 16.226562 -10.878906 16.046875 -10.875 16.046875 -10.875 L 4.203125 -10.875 C 4.347656 -8.625 4.890625 -6.765625 5.828125 -5.296875 C 6.765625 -3.835938 7.914062 -2.757812 9.28125 -2.0625 C 10.65625 -1.363281 12.0625 -1.015625 13.5 -1.015625 C 14.726562 -1.015625 15.710938 -1.1875 16.453125 -1.53125 C 17.203125 -1.882812 17.757812 -2.300781 18.125 -2.78125 C 18.488281 -3.257812 18.734375 -3.675781 18.859375 -4.03125 C 18.992188 -4.382812 19.0625 -4.5625 19.0625 -4.5625 L 19.421875 -4.421875 C 18.859375 -2.554688 17.835938 -1.242188 16.359375 -0.484375 C 14.890625 0.273438 13.25 0.65625 11.4375 0.65625 Z M 10.125 -20.34375 C 8.28125 -20.34375 6.820312 -19.65625 5.75 -18.28125 C 4.6875 -16.90625 4.15625 -14.695312 4.15625 -11.65625 L 14.15625 -11.65625 C 15.320312 -11.65625 16.128906 -11.78125 16.578125 -12.03125 C 17.035156 -12.28125 17.265625 -12.859375 17.265625 -13.765625 C 17.265625 -14.898438 17.03125 -15.882812 16.5625 -16.71875 C 16.09375 -17.550781 15.492188 -18.226562 14.765625 -18.75 C 14.035156 -19.28125 13.253906 -19.675781 12.421875 -19.9375 C 11.585938 -20.207031 10.820312 -20.34375 10.125 -20.34375 Z M 10.125 -20.34375 "/></g></g></g><g fill="#c4ccce" fill-opacity="1"><g transform="translate(40.320918, 94.208992)"><g/></g></g><g fill="#c4ccce" fill-opacity="1"><g transform="translate(51.275104, 94.208992)"><g><path d="M 7.75 3.765625 C 7.75 4.585938 7.65625 5.460938 7.46875 6.390625 C 7.28125 7.328125 6.9375 8.179688 6.4375 8.953125 C 5.945312 9.734375 5.253906 10.320312 4.359375 10.71875 C 3.472656 11.113281 2.3125 11.191406 0.875 10.953125 L 0.875 10.609375 C 2.164062 10.691406 3.128906 10.390625 3.765625 9.703125 C 4.410156 9.015625 4.832031 8.019531 5.03125 6.71875 C 5.238281 5.425781 5.34375 3.945312 5.34375 2.28125 L 5.34375 -11.171875 C 5.34375 -13.304688 5.289062 -14.90625 5.1875 -15.96875 C 5.09375 -17.039062 4.8125 -17.757812 4.34375 -18.125 C 3.875 -18.488281 3.054688 -18.671875 1.890625 -18.671875 L 1.890625 -19.015625 C 2.878906 -19.253906 3.882812 -19.628906 4.90625 -20.140625 C 5.925781 -20.648438 6.773438 -21.179688 7.453125 -21.734375 C 8.179688 -22.316406 8.707031 -22.894531 9.03125 -23.46875 C 9.351562 -24.039062 9.523438 -24.804688 9.546875 -25.765625 C 9.609375 -26.617188 9.363281 -27.398438 8.8125 -28.109375 C 8.257812 -28.828125 7.628906 -29.21875 6.921875 -29.28125 C 7.304688 -29.039062 7.613281 -28.71875 7.84375 -28.3125 C 8.082031 -27.90625 8.203125 -27.453125 8.203125 -26.953125 C 8.203125 -26.191406 7.929688 -25.539062 7.390625 -25 C 6.847656 -24.457031 6.195312 -24.1875 5.4375 -24.1875 C 4.53125 -24.1875 3.84375 -24.476562 3.375 -25.0625 C 2.90625 -25.65625 2.671875 -26.316406 2.671875 -27.046875 C 2.671875 -27.742188 2.925781 -28.390625 3.4375 -28.984375 C 3.945312 -29.585938 4.710938 -29.890625 5.734375 -29.890625 C 7.023438 -29.890625 8.039062 -29.492188 8.78125 -28.703125 C 9.53125 -27.921875 9.90625 -26.941406 9.90625 -25.765625 C 9.90625 -24.628906 9.671875 -23.71875 9.203125 -23.03125 C 8.734375 -22.34375 8.25 -21.820312 7.75 -21.46875 Z M 7.75 3.765625 "/></g></g></g><g fill="#c4ccce" fill-opacity="1"><g transform="translate(62.492193, 94.208992)"><g><path d="M 2.1875 -6.484375 C 2.1875 -8.148438 2.585938 -9.597656 3.390625 -10.828125 C 4.203125 -12.054688 5.300781 -13.003906 6.6875 -13.671875 C 8.070312 -14.347656 9.625 -14.6875 11.34375 -14.6875 C 12.71875 -14.6875 13.882812 -14.457031 14.84375 -14 C 15.8125 -13.550781 16.617188 -13.035156 17.265625 -12.453125 L 17.265625 -13.71875 C 17.265625 -14.914062 17.117188 -16.039062 16.828125 -17.09375 C 16.535156 -18.144531 15.992188 -19 15.203125 -19.65625 C 14.421875 -20.3125 13.296875 -20.640625 11.828125 -20.640625 C 10.898438 -20.640625 10.140625 -20.5 9.546875 -20.21875 C 8.960938 -19.945312 8.492188 -19.601562 8.140625 -19.1875 C 7.796875 -18.78125 7.484375 -18.363281 7.203125 -17.9375 C 6.929688 -17.519531 6.625 -17.171875 6.28125 -16.890625 C 5.945312 -16.617188 5.519531 -16.484375 5 -16.484375 C 4.675781 -16.484375 4.410156 -16.597656 4.203125 -16.828125 C 4.003906 -17.066406 3.90625 -17.34375 3.90625 -17.65625 C 3.90625 -18.269531 4.144531 -18.8125 4.625 -19.28125 C 5.101562 -19.75 5.707031 -20.148438 6.4375 -20.484375 C 7.164062 -20.828125 7.925781 -21.078125 8.71875 -21.234375 C 9.507812 -21.390625 10.210938 -21.46875 10.828125 -21.46875 C 13.046875 -21.46875 14.796875 -21.046875 16.078125 -20.203125 C 17.367188 -19.359375 18.289062 -18.285156 18.84375 -16.984375 C 19.394531 -15.679688 19.671875 -14.375 19.671875 -13.0625 L 19.671875 -9.90625 C 19.671875 -7.769531 19.722656 -6.164062 19.828125 -5.09375 C 19.929688 -4.03125 20.222656 -3.316406 20.703125 -2.953125 C 21.191406 -2.585938 22.003906 -2.40625 23.140625 -2.40625 L 23.140625 -2.0625 C 22.148438 -1.820312 21.148438 -1.445312 20.140625 -0.9375 C 19.128906 -0.425781 18.273438 0.101562 17.578125 0.65625 L 17.265625 0.65625 L 17.265625 -3.25 C 16.453125 -2.195312 15.378906 -1.28125 14.046875 -0.5 C 12.710938 0.269531 11.226562 0.65625 9.59375 0.65625 C 8.25 0.65625 7.015625 0.34375 5.890625 -0.28125 C 4.765625 -0.914062 3.863281 -1.769531 3.1875 -2.84375 C 2.519531 -3.925781 2.1875 -5.140625 2.1875 -6.484375 Z M 4.734375 -6.625 C 4.734375 -5.539062 5.003906 -4.546875 5.546875 -3.640625 C 6.085938 -2.734375 6.800781 -2.007812 7.6875 -1.46875 C 8.582031 -0.925781 9.539062 -0.65625 10.5625 -0.65625 C 11.582031 -0.65625 12.550781 -0.851562 13.46875 -1.25 C 14.394531 -1.644531 15.191406 -2.148438 15.859375 -2.765625 C 16.535156 -3.378906 17.003906 -4.035156 17.265625 -4.734375 L 17.265625 -11.34375 C 16.535156 -12.226562 15.703125 -12.863281 14.765625 -13.25 C 13.835938 -13.644531 12.890625 -13.84375 11.921875 -13.84375 C 10.722656 -13.84375 9.566406 -13.550781 8.453125 -12.96875 C 7.347656 -12.382812 6.453125 -11.550781 5.765625 -10.46875 C 5.078125 -9.394531 4.734375 -8.113281 4.734375 -6.625 Z M 4.734375 -6.625 "/></g></g></g><g fill="#c4ccce" fill-opacity="1"><g transform="translate(86.065606, 94.208992)"><g><path d="M 0.875 -18.796875 C 1.863281 -19.035156 2.863281 -19.410156 3.875 -19.921875 C 4.882812 -20.429688 5.738281 -20.960938 6.4375 -21.515625 L 6.75 -21.515625 L 6.75 -16 C 7.039062 -16.875 7.550781 -17.726562 8.28125 -18.5625 C 9.007812 -19.394531 9.867188 -20.085938 10.859375 -20.640625 C 11.859375 -21.191406 12.898438 -21.46875 13.984375 -21.46875 C 15.117188 -21.46875 16.101562 -21.144531 16.9375 -20.5 C 17.769531 -19.863281 18.1875 -18.988281 18.1875 -17.875 C 18.1875 -16.96875 17.957031 -16.171875 17.5 -15.484375 C 17.050781 -14.804688 16.445312 -14.46875 15.6875 -14.46875 C 15.3125 -14.46875 15.015625 -14.582031 14.796875 -14.8125 C 14.578125 -15.050781 14.46875 -15.359375 14.46875 -15.734375 C 14.46875 -16.285156 14.625 -16.738281 14.9375 -17.09375 C 15.257812 -17.445312 15.421875 -17.898438 15.421875 -18.453125 C 15.421875 -19.097656 15.15625 -19.566406 14.625 -19.859375 C 14.101562 -20.148438 13.566406 -20.296875 13.015625 -20.296875 C 12.023438 -20.296875 11.140625 -20.03125 10.359375 -19.5 C 9.585938 -18.976562 8.929688 -18.320312 8.390625 -17.53125 C 7.847656 -16.738281 7.4375 -15.957031 7.15625 -15.1875 C 6.882812 -14.414062 6.75 -13.765625 6.75 -13.234375 L 6.75 -9.90625 C 6.75 -7.71875 6.804688 -5.910156 6.921875 -4.484375 C 7.035156 -3.066406 7.332031 -2.019531 7.8125 -1.34375 C 8.300781 -0.675781 9.101562 -0.34375 10.21875 -0.34375 L 10.21875 0 L 0.875 0 L 0.875 -0.34375 C 1.988281 -0.34375 2.785156 -0.675781 3.265625 -1.34375 C 3.742188 -2.019531 4.039062 -3.066406 4.15625 -4.484375 C 4.28125 -5.910156 4.34375 -7.71875 4.34375 -9.90625 L 4.34375 -10.953125 C 4.34375 -13.085938 4.289062 -14.6875 4.1875 -15.75 C 4.082031 -16.820312 3.796875 -17.539062 3.328125 -17.90625 C 2.859375 -18.269531 2.039062 -18.453125 0.875 -18.453125 Z M 0.875 -18.796875 "/></g></g></g><g fill="#c4ccce" fill-opacity="1"><g transform="translate(105.125896, 94.208992)"><g><path d="M 2.1875 -10.4375 C 2.1875 -12.65625 2.570312 -14.585938 3.34375 -16.234375 C 4.125 -17.890625 5.210938 -19.175781 6.609375 -20.09375 C 8.015625 -21.007812 9.625 -21.46875 11.4375 -21.46875 C 12.726562 -21.46875 13.796875 -21.144531 14.640625 -20.5 C 15.484375 -19.863281 16.097656 -19.078125 16.484375 -18.140625 L 16.484375 -20.78125 C 16.484375 -22.90625 16.429688 -24.5 16.328125 -25.5625 C 16.222656 -26.632812 15.9375 -27.351562 15.46875 -27.71875 C 15 -28.082031 14.179688 -28.265625 13.015625 -28.265625 L 13.015625 -28.625 C 14.003906 -28.851562 15.003906 -29.222656 16.015625 -29.734375 C 17.023438 -30.242188 17.878906 -30.78125 18.578125 -31.34375 L 18.890625 -31.34375 L 18.890625 -9.90625 C 18.890625 -7.71875 18.945312 -5.910156 19.0625 -4.484375 C 19.175781 -3.066406 19.472656 -2.019531 19.953125 -1.34375 C 20.441406 -0.675781 21.242188 -0.34375 22.359375 -0.34375 L 22.359375 0 L 16.484375 0 L 16.484375 -2.578125 C 16.015625 -1.734375 15.351562 -0.984375 14.5 -0.328125 C 13.65625 0.328125 12.632812 0.65625 11.4375 0.65625 C 9.625 0.65625 8.015625 0.195312 6.609375 -0.71875 C 5.210938 -1.644531 4.125 -2.9375 3.34375 -4.59375 C 2.570312 -6.257812 2.1875 -8.207031 2.1875 -10.4375 Z M 4.734375 -10.46875 C 4.734375 -8.425781 5.039062 -6.613281 5.65625 -5.03125 C 6.269531 -3.457031 7.085938 -2.234375 8.109375 -1.359375 C 9.128906 -0.484375 10.238281 -0.046875 11.4375 -0.046875 C 12.226562 -0.046875 13.007812 -0.304688 13.78125 -0.828125 C 14.5625 -1.359375 15.207031 -2.050781 15.71875 -2.90625 C 16.226562 -3.769531 16.484375 -4.703125 16.484375 -5.703125 L 16.484375 -15.390625 C 16.484375 -16.347656 16.25 -17.234375 15.78125 -18.046875 C 15.3125 -18.867188 14.695312 -19.53125 13.9375 -20.03125 C 13.175781 -20.53125 12.34375 -20.78125 11.4375 -20.78125 C 10.238281 -20.78125 9.128906 -20.335938 8.109375 -19.453125 C 7.085938 -18.578125 6.269531 -17.375 5.65625 -15.84375 C 5.039062 -14.3125 4.734375 -12.519531 4.734375 -10.46875 Z M 4.734375 -10.46875 "/></g></g></g><g fill="#c4ccce" fill-opacity="1"><g transform="translate(128.348779, 94.208992)"><g><path d="M 0.875 -0.34375 C 1.988281 -0.34375 2.785156 -0.675781 3.265625 -1.34375 C 3.742188 -2.019531 4.039062 -3.066406 4.15625 -4.484375 C 4.28125 -5.910156 4.34375 -7.71875 4.34375 -9.90625 L 4.34375 -10.953125 C 4.34375 -13.085938 4.289062 -14.6875 4.1875 -15.75 C 4.082031 -16.820312 3.796875 -17.539062 3.328125 -17.90625 C 2.859375 -18.269531 2.039062 -18.453125 0.875 -18.453125 L 0.875 -18.796875 C 1.863281 -19.035156 2.867188 -19.410156 3.890625 -19.921875 C 4.921875 -20.429688 5.769531 -20.960938 6.4375 -21.515625 C 7.164062 -22.097656 7.691406 -22.675781 8.015625 -23.25 C 8.335938 -23.820312 8.515625 -24.585938 8.546875 -25.546875 C 8.609375 -26.398438 8.359375 -27.179688 7.796875 -27.890625 C 7.242188 -28.609375 6.617188 -29 5.921875 -29.0625 C 6.296875 -28.820312 6.597656 -28.5 6.828125 -28.09375 C 7.066406 -27.6875 7.1875 -27.234375 7.1875 -26.734375 C 7.1875 -25.972656 6.914062 -25.320312 6.375 -24.78125 C 5.832031 -24.238281 5.179688 -23.96875 4.421875 -23.96875 C 3.515625 -23.96875 2.828125 -24.257812 2.359375 -24.84375 C 1.898438 -25.4375 1.671875 -26.097656 1.671875 -26.828125 C 1.671875 -27.523438 1.925781 -28.171875 2.4375 -28.765625 C 2.945312 -29.367188 3.710938 -29.671875 4.734375 -29.671875 C 6.015625 -29.671875 7.023438 -29.273438 7.765625 -28.484375 C 8.515625 -27.703125 8.890625 -26.722656 8.890625 -25.546875 C 8.890625 -24.410156 8.65625 -23.5 8.1875 -22.8125 C 7.726562 -22.125 7.25 -21.601562 6.75 -21.25 L 6.75 -9.90625 C 6.75 -7.71875 6.804688 -5.910156 6.921875 -4.484375 C 7.035156 -3.066406 7.332031 -2.019531 7.8125 -1.34375 C 8.300781 -0.675781 9.101562 -0.34375 10.21875 -0.34375 L 10.21875 0 L 0.875 0 Z M 0.875 -0.34375 "/></g></g></g><g fill="#c4ccce" fill-opacity="1"><g transform="translate(138.996246, 94.208992)"><g><path d="M 0.875 -18.453125 L 0.875 -18.796875 C 1.863281 -19.035156 2.863281 -19.410156 3.875 -19.921875 C 4.882812 -20.429688 5.738281 -20.960938 6.4375 -21.515625 L 6.75 -21.515625 L 6.75 -17.53125 C 7.21875 -18.144531 7.785156 -18.757812 8.453125 -19.375 C 9.128906 -19.988281 9.910156 -20.488281 10.796875 -20.875 C 11.691406 -21.269531 12.664062 -21.46875 13.71875 -21.46875 C 15.644531 -21.46875 17.222656 -20.847656 18.453125 -19.609375 C 19.679688 -18.367188 20.296875 -16.753906 20.296875 -14.765625 C 20.296875 -14.765625 20.300781 -14.488281 20.3125 -13.9375 C 20.332031 -13.382812 20.34375 -12.726562 20.34375 -11.96875 C 20.34375 -11.207031 20.34375 -10.519531 20.34375 -9.90625 C 20.34375 -7.71875 20.398438 -5.910156 20.515625 -4.484375 C 20.628906 -3.066406 20.925781 -2.019531 21.40625 -1.34375 C 21.894531 -0.675781 22.691406 -0.34375 23.796875 -0.34375 L 23.796875 0 L 14.46875 0 L 14.46875 -0.34375 C 15.570312 -0.34375 16.363281 -0.675781 16.84375 -1.34375 C 17.332031 -2.019531 17.632812 -3.066406 17.75 -4.484375 C 17.863281 -5.910156 17.921875 -7.71875 17.921875 -9.90625 L 17.921875 -10.953125 C 17.921875 -11.335938 17.921875 -11.769531 17.921875 -12.25 C 17.921875 -12.726562 17.910156 -13.144531 17.890625 -13.5 C 17.878906 -13.851562 17.875 -14.03125 17.875 -14.03125 C 17.875 -16.332031 17.40625 -17.976562 16.46875 -18.96875 C 15.539062 -19.96875 14.445312 -20.46875 13.1875 -20.46875 C 11.9375 -20.46875 10.695312 -20.050781 9.46875 -19.21875 C 8.238281 -18.382812 7.332031 -17.28125 6.75 -15.90625 L 6.75 -9.90625 C 6.75 -7.71875 6.804688 -5.910156 6.921875 -4.484375 C 7.035156 -3.066406 7.332031 -2.019531 7.8125 -1.34375 C 8.300781 -0.675781 9.101562 -0.34375 10.21875 -0.34375 L 10.21875 0 L 0.875 0 L 0.875 -0.34375 C 1.988281 -0.34375 2.785156 -0.675781 3.265625 -1.34375 C 3.742188 -2.019531 4.039062 -3.066406 4.15625 -4.484375 C 4.28125 -5.910156 4.34375 -7.71875 4.34375 -9.90625 L 4.34375 -10.953125 C 4.34375 -13.085938 4.289062 -14.6875 4.1875 -15.75 C 4.082031 -16.820312 3.796875 -17.539062 3.328125 -17.90625 C 2.859375 -18.269531 2.039062 -18.453125 0.875 -18.453125 Z M 0.875 -18.453125 "/></g></g></g></g></g></svg>