<svg xmlns="http://www.w3.org/2000/svg" xmlns:xlink="http://www.w3.org/1999/xlink" width="500" zoomAndPan="magnify" viewBox="0 0 375 187.499995" height="250" preserveAspectRatio="xMidYMid meet" version="1.0"><defs><clipPath id="df5c33331a"><path d="M 1 32.976562 L 374.5 32.976562 L 374.5 154.152344 L 1 154.152344 Z M 1 32.976562 " clip-rule="nonzero"/></clipPath><clipPath id="f781a7acf6"><path d="M 0.214844 0.976562 L 373 0.976562 L 373 122.015625 L 0.214844 122.015625 Z M 0.214844 0.976562 " clip-rule="nonzero"/></clipPath><clipPath id="fd522c4a38"><rect x="0" width="374" y="0" height="123"/></clipPath></defs><g clip-path="url(#df5c33331a)"><g transform="matrix(1, 0, 0, 1, 1, 32)"><g clip-path="url(#fd522c4a38)"><g clip-path="url(#f781a7acf6)"><path fill="#594450" d="M 265.507812 5.949219 C 263.023438 4.34375 260.148438 3.941406 258.003906 4.90625 C 257.691406 5.042969 257.328125 4.90625 257.1875 4.59375 C 257.046875 4.28125 257.1875 3.917969 257.5 3.777344 C 260.023438 2.644531 263.347656 3.082031 266.179688 4.914062 C 269.304688 6.9375 271.167969 10.191406 271.167969 13.621094 C 271.167969 20.789062 265.222656 28.050781 253.859375 28.050781 C 238.214844 28.050781 214.582031 17.722656 196.386719 2.941406 C 196.125 2.722656 196.082031 2.332031 196.296875 2.070312 C 196.421875 1.917969 196.597656 1.84375 196.777344 1.84375 C 196.917969 1.84375 197.054688 1.886719 197.167969 1.980469 C 215.160156 16.601562 238.472656 26.8125 253.859375 26.8125 C 264.902344 26.8125 269.933594 19.976562 269.933594 13.621094 C 269.933594 10.613281 268.277344 7.746094 265.507812 5.953125 Z M 238.355469 80.4375 C 238.605469 80.667969 238.617188 81.058594 238.386719 81.308594 C 237.953125 81.777344 237.597656 83.699219 238.472656 85.710938 C 239.207031 87.40625 240.949219 89.425781 245.078125 89.425781 C 254.679688 89.425781 265.046875 80.832031 265.046875 66.953125 C 265.046875 53.960938 258.226562 45.273438 252.027344 40.042969 C 264.117188 54.84375 260.585938 67.210938 259.070312 70.917969 C 257.070312 75.808594 253.484375 79.222656 250.351562 79.222656 C 247.480469 79.222656 245.472656 77.320312 245.472656 74.597656 C 245.472656 74.257812 245.746094 73.980469 246.089844 73.980469 C 246.429688 73.980469 246.707031 74.257812 246.707031 74.597656 C 246.707031 76.625 248.171875 77.984375 250.351562 77.984375 C 252.582031 77.984375 255.898438 75.394531 257.925781 70.445312 C 259.523438 66.542969 263.449219 52.546875 246.910156 36.285156 C 246.898438 36.273438 246.890625 36.253906 246.878906 36.238281 C 246.851562 36.207031 246.828125 36.171875 246.808594 36.132812 C 246.789062 36.101562 246.773438 36.066406 246.765625 36.03125 C 246.75 35.992188 246.746094 35.957031 246.742188 35.914062 C 246.734375 35.875 246.734375 35.839844 246.738281 35.800781 C 246.742188 35.761719 246.75 35.722656 246.757812 35.6875 C 246.769531 35.644531 246.785156 35.609375 246.804688 35.570312 C 246.8125 35.550781 246.8125 35.535156 246.824219 35.515625 C 246.832031 35.5 246.851562 35.496094 246.863281 35.484375 C 246.878906 35.460938 246.886719 35.433594 246.90625 35.414062 C 246.9375 35.382812 246.972656 35.367188 247.007812 35.34375 C 247.03125 35.328125 247.054688 35.308594 247.078125 35.296875 C 247.164062 35.253906 247.253906 35.226562 247.347656 35.226562 C 247.449219 35.226562 247.546875 35.261719 247.636719 35.3125 C 247.652344 35.320312 247.664062 35.316406 247.675781 35.324219 C 254.625 39.703125 266.28125 49.640625 266.28125 66.953125 C 266.28125 81.597656 255.273438 90.664062 245.078125 90.664062 C 240.027344 90.664062 238.0625 87.867188 237.339844 86.203125 C 236.347656 83.925781 236.617188 81.398438 237.484375 80.464844 C 237.71875 80.214844 238.109375 80.199219 238.359375 80.433594 Z M 266.707031 32.882812 C 268.066406 31.511719 269.875 30.757812 271.796875 30.757812 L 271.800781 30.757812 C 273.722656 30.757812 275.53125 31.511719 276.886719 32.882812 C 282.917969 38.886719 282.835938 48.019531 282.828125 48.40625 C 282.824219 48.738281 282.554688 49.011719 282.21875 49.015625 C 281.84375 49.011719 272.738281 49.070312 266.703125 43.066406 C 263.902344 40.242188 263.902344 35.675781 266.703125 32.882812 Z M 267.582031 42.191406 C 272.363281 46.949219 279.453125 47.65625 281.578125 47.761719 C 281.484375 45.625 280.796875 38.519531 276.011719 33.757812 C 274.886719 32.621094 273.390625 31.996094 271.800781 31.996094 C 270.207031 31.996094 268.710938 32.621094 267.582031 33.757812 C 265.261719 36.070312 265.261719 39.855469 267.582031 42.195312 Z M 205.207031 4.722656 C 204.96875 4.558594 204.878906 4.246094 204.992188 3.976562 C 205.105469 3.707031 205.382812 3.558594 205.679688 3.613281 C 209.667969 4.402344 212.691406 3.960938 215.890625 3.5 C 217.925781 3.207031 220.003906 2.910156 222.402344 2.910156 C 223.945312 2.910156 225.621094 3.03125 227.507812 3.363281 C 232.007812 4.148438 234.613281 6.546875 237.128906 8.867188 C 239.132812 10.710938 241.023438 12.453125 243.730469 13.144531 C 244.011719 13.21875 244.203125 13.472656 244.195312 13.761719 C 244.1875 14.050781 243.980469 14.296875 243.699219 14.351562 C 236.527344 15.765625 221.992188 16.394531 205.207031 4.726562 Z M 236.292969 9.777344 C 233.90625 7.578125 231.4375 5.304688 227.292969 4.582031 C 222.6875 3.769531 219.320312 4.253906 216.066406 4.726562 C 214.09375 5.007812 212.1875 5.285156 210.078125 5.285156 C 209.457031 5.285156 208.820312 5.261719 208.15625 5.207031 C 222.015625 14.050781 234.054688 14.464844 241.199219 13.511719 C 239.332031 12.578125 237.84375 11.203125 236.292969 9.777344 Z M 277.800781 23.453125 C 277.769531 23.429688 277.734375 23.410156 277.710938 23.382812 L 277.691406 23.359375 L 277.683594 23.355469 L 277.675781 23.339844 C 277.65625 23.3125 277.640625 23.289062 277.625 23.261719 C 277.613281 23.238281 277.59375 23.21875 277.585938 23.195312 C 277.554688 23.121094 277.539062 23.046875 277.539062 22.964844 L 277.539062 22.945312 L 277.542969 22.921875 L 277.550781 22.898438 C 277.554688 22.847656 277.558594 22.796875 277.574219 22.746094 L 277.582031 22.738281 C 277.609375 22.664062 277.652344 22.601562 277.703125 22.546875 L 277.707031 22.53125 C 279.433594 20.726562 280.964844 18.304688 282.449219 15.960938 C 284.074219 13.390625 285.753906 10.730469 287.691406 8.914062 C 290.261719 6.5 293.613281 5.113281 296.308594 3.996094 C 297.828125 3.367188 299.140625 2.824219 300.09375 2.214844 C 300.195312 2.148438 300.3125 2.117188 300.429688 2.117188 C 300.601562 2.117188 300.773438 2.191406 300.894531 2.332031 C 301.097656 2.566406 301.09375 2.910156 300.894531 3.140625 C 299.808594 4.390625 298.789062 6.054688 297.710938 7.820312 C 296.339844 10.050781 294.921875 12.363281 293.230469 14.03125 C 291.046875 16.171875 287.023438 18.472656 283.476562 20.503906 C 282.425781 21.105469 281.417969 21.683594 280.488281 22.238281 C 289.792969 21.542969 302.773438 16.980469 316.460938 12.160156 C 331.679688 6.796875 347.417969 1.253906 358.277344 1.253906 C 366.121094 1.253906 370.511719 5.097656 372.007812 8.699219 C 373.398438 12.054688 372.683594 15.613281 370.089844 18.214844 C 367.121094 21.175781 364.238281 20.964844 362.78125 20.570312 C 360.738281 20.019531 359.046875 18.453125 358.574219 16.675781 C 358.222656 15.359375 358.558594 14.105469 359.515625 13.148438 C 359.757812 12.910156 360.148438 12.914062 360.390625 13.148438 C 360.628906 13.390625 360.628906 13.78125 360.390625 14.023438 C 359.578125 14.832031 359.601562 15.738281 359.765625 16.355469 C 360.132812 17.722656 361.472656 18.9375 363.101562 19.375 C 364.304688 19.695312 366.691406 19.859375 369.214844 17.339844 C 371.445312 15.109375 372.058594 12.050781 370.863281 9.171875 C 369.523438 5.941406 365.511719 2.488281 358.277344 2.488281 C 347.628906 2.488281 331.992188 7.996094 316.871094 13.324219 C 304.199219 17.785156 292.136719 22.027344 282.902344 23.230469 C 286.238281 23.746094 289.789062 24.089844 293.273438 24.414062 C 299.125 24.957031 305.175781 25.515625 309.953125 26.960938 C 316.324219 28.882812 321.699219 32.585938 326.011719 35.558594 C 328.214844 37.078125 330.292969 38.511719 332.136719 39.457031 C 332.410156 39.59375 332.535156 39.914062 332.4375 40.203125 C 332.339844 40.496094 332.039062 40.667969 331.738281 40.613281 C 328.816406 40.066406 325.332031 39.769531 321.640625 39.460938 C 316.414062 39.015625 311.011719 38.558594 306.601562 37.332031 C 300.609375 35.691406 292.519531 31.320312 285.382812 27.46875 C 282.667969 26.003906 280.101562 24.617188 277.882812 23.507812 C 277.851562 23.492188 277.828125 23.46875 277.800781 23.449219 Z M 282.859375 19.433594 C 286.34375 17.4375 290.292969 15.179688 292.363281 13.148438 C 293.945312 11.589844 295.324219 9.347656 296.652344 7.175781 C 297.230469 6.238281 297.785156 5.328125 298.351562 4.484375 C 297.855469 4.699219 297.332031 4.914062 296.78125 5.144531 C 294.046875 6.273438 290.945312 7.558594 288.535156 9.816406 C 286.714844 11.527344 285.148438 14.003906 283.492188 16.625 C 282.65625 17.949219 281.800781 19.300781 280.898438 20.5625 C 281.53125 20.195312 282.1875 19.820312 282.859375 19.433594 Z M 285.96875 26.386719 C 293.046875 30.207031 301.070312 34.539062 306.929688 36.144531 C 311.230469 37.339844 316.574219 37.792969 321.742188 38.230469 C 324.207031 38.441406 326.582031 38.644531 328.769531 38.914062 C 327.660156 38.203125 326.503906 37.402344 325.308594 36.582031 C 320.84375 33.5 315.78125 30.011719 309.59375 28.144531 C 304.9375 26.738281 298.949219 26.183594 293.15625 25.648438 C 289.507812 25.308594 285.769531 24.960938 282.273438 24.402344 C 283.460938 25.03125 284.695312 25.699219 285.964844 26.382812 Z M 215.347656 35.503906 C 217.0625 33.269531 219.621094 32.050781 222.511719 32.050781 C 222.925781 32.050781 223.34375 32.089844 223.769531 32.136719 C 224.765625 31.59375 225.925781 31.3125 227.167969 31.3125 C 228.160156 31.3125 229.195312 31.484375 230.234375 31.835938 C 233.367188 32.890625 235.980469 35.351562 237.226562 38.417969 C 238.101562 40.5625 238.398438 43.226562 238.683594 45.800781 C 239.132812 49.863281 239.558594 53.695312 242.03125 55.375 C 242.199219 55.488281 242.300781 55.671875 242.300781 55.875 C 242.304688 56.074219 242.210938 56.265625 242.050781 56.382812 C 238.753906 58.789062 234.371094 58.253906 231.558594 56.507812 C 230.476562 58.863281 228.917969 61.070312 226.792969 62.917969 C 226.621094 63.066406 226.378906 63.109375 226.167969 63.027344 C 225.957031 62.945312 225.804688 62.753906 225.777344 62.53125 C 225.453125 60.058594 223.414062 58.007812 221.058594 55.632812 C 218.691406 53.25 216.007812 50.546875 214.398438 46.75 C 212.691406 42.710938 213.046875 38.507812 215.347656 35.503906 Z M 240.628906 55.832031 C 238.308594 53.65625 237.875 49.738281 237.453125 45.9375 C 237.175781 43.445312 236.890625 40.871094 236.082031 38.886719 C 234.96875 36.148438 232.636719 33.949219 229.839844 33.007812 C 228.472656 32.546875 227.132812 32.464844 225.941406 32.695312 C 228.976562 33.898438 231.433594 36.855469 232.6875 41.019531 C 233.914062 45.101562 233.9375 50.46875 232.039062 55.359375 C 234.289062 56.84375 237.804688 57.425781 240.632812 55.832031 Z M 215.539062 46.269531 C 217.054688 49.847656 219.648438 52.460938 221.9375 54.761719 C 224.121094 56.964844 226.046875 58.902344 226.761719 61.265625 C 232.441406 55.675781 233.242188 47.15625 231.503906 41.375 C 230.132812 36.820312 227.257812 33.828125 223.8125 33.375 L 223.808594 33.375 C 220.769531 32.953125 218.046875 34.011719 216.328125 36.253906 C 214.304688 38.898438 214.007812 42.644531 215.539062 46.269531 Z M 101.1875 30.757812 L 101.199219 30.757812 C 103.125 30.757812 104.933594 31.511719 106.292969 32.878906 C 109.085938 35.671875 109.085938 40.238281 106.292969 43.066406 C 100.265625 49.070312 91.140625 49.042969 90.769531 49.011719 C 90.4375 49.007812 90.164062 48.738281 90.160156 48.402344 C 90.152344 48.019531 90.082031 38.886719 96.109375 32.882812 C 97.464844 31.515625 99.269531 30.757812 101.191406 30.757812 Z M 105.414062 42.195312 C 107.730469 39.851562 107.734375 36.066406 105.414062 33.753906 C 104.289062 32.617188 102.789062 31.992188 101.195312 31.992188 L 101.1875 31.992188 C 99.597656 31.992188 98.105469 32.617188 96.984375 33.753906 C 92.203125 38.515625 91.511719 45.625 91.410156 47.757812 C 93.542969 47.652344 100.640625 46.949219 105.414062 42.191406 Z M 130.683594 55.871094 C 130.6875 55.671875 130.789062 55.484375 130.957031 55.371094 C 133.4375 53.691406 133.863281 49.855469 134.316406 45.792969 C 134.605469 43.21875 134.898438 40.558594 135.773438 38.421875 C 137.011719 35.355469 139.621094 32.894531 142.757812 31.835938 C 143.796875 31.484375 144.835938 31.308594 145.824219 31.308594 C 147.066406 31.308594 148.226562 31.59375 149.21875 32.136719 C 149.589844 32.09375 149.957031 32.066406 150.320312 32.058594 C 153.285156 27.21875 156.316406 23.25 159.324219 20.269531 C 159.441406 20.152344 159.601562 20.089844 159.757812 20.089844 C 159.914062 20.089844 160.074219 20.152344 160.195312 20.277344 C 160.433594 20.519531 160.433594 20.910156 160.191406 21.148438 C 157.371094 23.941406 154.527344 27.640625 151.730469 32.136719 C 154.105469 32.4375 156.183594 33.597656 157.640625 35.503906 C 159.9375 38.503906 160.292969 42.707031 158.585938 46.753906 C 156.976562 50.546875 154.296875 53.246094 151.933594 55.628906 C 149.578125 58.003906 147.542969 60.054688 147.222656 62.527344 C 147.195312 62.753906 147.042969 62.945312 146.832031 63.027344 C 146.621094 63.109375 146.378906 63.066406 146.203125 62.917969 C 144.082031 61.070312 142.519531 58.863281 141.4375 56.507812 C 138.625 58.25 134.242188 58.785156 130.9375 56.382812 C 130.773438 56.265625 130.679688 56.074219 130.683594 55.871094 Z M 146.238281 61.261719 C 146.949219 58.898438 148.875 56.957031 151.058594 54.757812 C 153.34375 52.453125 155.933594 49.84375 157.445312 46.269531 C 158.980469 42.640625 158.6875 38.898438 156.664062 36.253906 C 154.945312 34.011719 152.210938 32.960938 149.179688 33.375 L 149.175781 33.375 C 145.734375 33.828125 142.867188 36.816406 141.496094 41.367188 C 139.757812 47.148438 140.558594 55.671875 146.238281 61.261719 Z M 140.960938 55.355469 C 139.0625 50.460938 139.082031 45.09375 140.3125 41.011719 C 141.566406 36.851562 144.015625 33.890625 147.050781 32.691406 C 145.859375 32.464844 144.519531 32.542969 143.152344 33.003906 C 140.355469 33.949219 138.027344 36.144531 136.917969 38.882812 C 136.109375 40.867188 135.824219 43.4375 135.546875 45.929688 C 135.121094 49.734375 134.683594 53.652344 132.359375 55.828125 C 135.195312 57.425781 138.714844 56.839844 140.960938 55.355469 Z M 14.714844 1.253906 C 25.582031 1.253906 41.328125 6.800781 56.550781 12.164062 C 70.234375 16.984375 83.203125 21.546875 92.503906 22.242188 C 91.578125 21.6875 90.578125 21.113281 89.535156 20.515625 C 85.984375 18.484375 81.957031 16.175781 79.769531 14.03125 C 78.078125 12.367188 76.664062 10.058594 75.296875 7.820312 C 74.214844 6.058594 73.195312 4.390625 72.109375 3.144531 C 71.90625 2.910156 71.90625 2.566406 72.109375 2.332031 C 72.230469 2.191406 72.402344 2.117188 72.578125 2.117188 C 72.691406 2.117188 72.804688 2.152344 72.910156 2.214844 C 73.863281 2.828125 75.175781 3.371094 76.699219 4 C 79.390625 5.117188 82.742188 6.503906 85.316406 8.914062 C 87.253906 10.734375 88.9375 13.398438 90.5625 15.972656 C 92.039062 18.3125 93.566406 20.734375 95.285156 22.53125 L 95.292969 22.546875 C 95.34375 22.601562 95.382812 22.667969 95.410156 22.738281 L 95.417969 22.746094 C 95.4375 22.800781 95.441406 22.851562 95.445312 22.90625 L 95.449219 22.921875 L 95.453125 22.945312 L 95.457031 22.960938 L 95.457031 22.964844 C 95.453125 23.042969 95.4375 23.121094 95.40625 23.191406 C 95.398438 23.214844 95.378906 23.234375 95.367188 23.253906 C 95.355469 23.285156 95.339844 23.3125 95.316406 23.335938 L 95.3125 23.355469 L 95.304688 23.359375 L 95.285156 23.382812 C 95.257812 23.410156 95.226562 23.425781 95.195312 23.449219 C 95.167969 23.46875 95.148438 23.496094 95.117188 23.511719 C 92.886719 24.625 90.3125 26.011719 87.585938 27.484375 C 80.460938 31.332031 72.382812 35.691406 66.410156 37.335938 C 61.996094 38.558594 56.59375 39.015625 51.367188 39.460938 C 47.671875 39.773438 44.1875 40.070312 41.265625 40.613281 C 40.964844 40.671875 40.667969 40.5 40.566406 40.207031 C 40.464844 39.914062 40.597656 39.597656 40.871094 39.457031 C 42.703125 38.515625 44.773438 37.085938 46.964844 35.574219 C 51.285156 32.59375 56.664062 28.882812 63.054688 26.960938 C 67.824219 25.515625 73.875 24.957031 79.726562 24.414062 C 83.210938 24.089844 86.757812 23.746094 90.09375 23.230469 C 80.863281 22.027344 68.808594 17.789062 56.144531 13.328125 C 41.015625 8.003906 25.375 2.492188 14.71875 2.492188 C 7.488281 2.492188 3.480469 5.9375 2.140625 9.164062 C 0.941406 12.046875 1.5625 15.105469 3.789062 17.339844 C 6.3125 19.863281 8.699219 19.699219 9.898438 19.375 C 11.53125 18.9375 12.875 17.722656 13.242188 16.355469 C 13.40625 15.738281 13.429688 14.835938 12.621094 14.023438 C 12.378906 13.785156 12.378906 13.394531 12.621094 13.152344 C 12.859375 12.914062 13.25 12.910156 13.492188 13.152344 C 14.453125 14.109375 14.789062 15.359375 14.433594 16.675781 C 13.960938 18.457031 12.265625 20.023438 10.21875 20.570312 C 8.761719 20.960938 5.878906 21.175781 2.914062 18.214844 C 0.320312 15.613281 -0.398438 12.050781 1 8.691406 C 2.492188 5.097656 6.878906 1.253906 14.71875 1.253906 Z M 89.515625 16.632812 C 87.855469 14.007812 86.289062 11.527344 84.464844 9.816406 C 82.058594 7.558594 78.957031 6.273438 76.222656 5.144531 C 75.671875 4.917969 75.144531 4.699219 74.652344 4.484375 C 75.214844 5.328125 75.773438 6.238281 76.347656 7.175781 C 77.679688 9.347656 79.054688 11.589844 80.636719 13.148438 C 82.710938 15.183594 86.664062 17.445312 90.148438 19.441406 C 90.816406 19.824219 91.472656 20.199219 92.101562 20.566406 C 91.199219 19.308594 90.347656 17.957031 89.515625 16.632812 Z M 79.835938 25.648438 C 74.042969 26.183594 68.058594 26.738281 63.40625 28.144531 C 57.199219 30.011719 52.136719 33.507812 47.664062 36.59375 C 46.476562 37.410156 45.328125 38.203125 44.222656 38.914062 C 46.414062 38.640625 48.789062 38.441406 51.257812 38.230469 C 56.425781 37.792969 61.773438 37.339844 66.074219 36.144531 C 71.914062 34.539062 79.925781 30.214844 86.996094 26.398438 C 88.277344 25.710938 89.519531 25.035156 90.714844 24.402344 C 87.222656 24.960938 83.484375 25.308594 79.835938 25.648438 Z M 125.332031 35.324219 C 125.34375 35.316406 125.359375 35.320312 125.371094 35.3125 C 125.460938 35.261719 125.558594 35.230469 125.65625 35.226562 L 125.660156 35.226562 C 125.753906 35.226562 125.84375 35.253906 125.925781 35.296875 C 125.953125 35.308594 125.972656 35.328125 125.996094 35.34375 C 126.03125 35.367188 126.070312 35.382812 126.101562 35.414062 C 126.121094 35.433594 126.128906 35.460938 126.144531 35.484375 C 126.15625 35.496094 126.171875 35.503906 126.183594 35.515625 C 126.191406 35.535156 126.191406 35.550781 126.203125 35.570312 C 126.222656 35.609375 126.234375 35.644531 126.246094 35.683594 C 126.257812 35.722656 126.265625 35.757812 126.269531 35.796875 C 126.269531 35.835938 126.269531 35.875 126.265625 35.914062 C 126.261719 35.953125 126.253906 35.992188 126.242188 36.03125 C 126.230469 36.066406 126.214844 36.097656 126.195312 36.132812 C 126.175781 36.171875 126.152344 36.207031 126.125 36.242188 C 126.113281 36.253906 126.109375 36.273438 126.09375 36.285156 C 109.554688 52.542969 113.480469 66.542969 115.078125 70.445312 C 117.101562 75.394531 120.421875 77.984375 122.652344 77.984375 C 124.832031 77.984375 126.296875 76.625 126.296875 74.597656 C 126.296875 74.257812 126.574219 73.980469 126.914062 73.980469 C 127.257812 73.980469 127.535156 74.257812 127.535156 74.597656 C 127.535156 77.320312 125.527344 79.222656 122.652344 79.222656 C 119.519531 79.222656 115.933594 75.804688 113.933594 70.914062 C 112.417969 67.210938 108.886719 54.84375 120.976562 40.042969 C 114.777344 45.269531 107.960938 53.957031 107.960938 66.953125 C 107.960938 80.832031 118.316406 89.425781 127.910156 89.425781 C 132.046875 89.425781 133.792969 87.398438 134.53125 85.699219 C 135.402344 83.691406 135.046875 81.773438 134.613281 81.308594 C 134.382812 81.058594 134.394531 80.667969 134.644531 80.4375 C 134.890625 80.207031 135.285156 80.214844 135.515625 80.464844 C 136.382812 81.394531 136.652344 83.917969 135.664062 86.195312 C 134.941406 87.863281 132.96875 90.664062 127.910156 90.664062 C 117.722656 90.664062 106.722656 81.597656 106.722656 66.953125 C 106.722656 49.636719 118.382812 39.703125 125.332031 35.324219 Z M 129.300781 14.351562 C 129.015625 14.296875 128.8125 14.050781 128.800781 13.761719 C 128.792969 13.472656 128.988281 13.214844 129.265625 13.144531 C 131.976562 12.453125 133.867188 10.710938 135.871094 8.867188 C 138.386719 6.546875 140.992188 4.148438 145.496094 3.363281 C 147.375 3.03125 149.046875 2.90625 150.59375 2.90625 C 152.984375 2.90625 155.0625 3.207031 157.097656 3.5 C 160.296875 3.960938 163.320312 4.398438 167.304688 3.609375 C 167.597656 3.554688 167.878906 3.707031 167.992188 3.976562 C 168.105469 4.242188 168.019531 4.554688 167.777344 4.722656 C 151.007812 16.390625 136.46875 15.761719 129.300781 14.347656 Z M 164.832031 5.207031 C 161.917969 5.445312 159.476562 5.09375 156.921875 4.722656 C 153.667969 4.253906 150.308594 3.769531 145.707031 4.582031 C 141.5625 5.304688 139.09375 7.574219 136.707031 9.773438 C 135.15625 11.203125 133.667969 12.574219 131.800781 13.507812 C 138.941406 14.460938 150.984375 14.046875 164.832031 5.203125 Z M 168.808594 61.308594 C 172.8125 61.308594 174.320312 63.28125 175.777344 65.191406 C 176.808594 66.539062 177.878906 67.921875 179.925781 68.726562 C 180.261719 66.363281 181.933594 64.457031 183.4375 62.757812 C 184.496094 61.558594 185.492188 60.425781 185.878906 59.308594 L 185.878906 4.765625 C 184.621094 8.554688 183.988281 13.195312 183.335938 18.058594 C 181.855469 29.136719 180.179688 41.691406 169.972656 46.910156 C 169.726562 47.039062 169.421875 46.984375 169.234375 46.777344 C 169.046875 46.570312 169.019531 46.265625 169.167969 46.03125 C 169.191406 45.996094 171.457031 42.367188 171.457031 37.730469 C 171.457031 35.570312 170.65625 33.417969 169.808594 31.144531 C 168.832031 28.519531 167.820312 25.804688 167.820312 22.65625 C 167.820312 16.089844 171.980469 13.023438 176.800781 9.476562 C 179.746094 7.308594 183.085938 4.847656 186.019531 1.210938 C 186.023438 1.203125 186.035156 1.199219 186.042969 1.191406 C 186.066406 1.164062 186.089844 1.144531 186.117188 1.125 C 186.132812 1.113281 186.144531 1.09375 186.164062 1.082031 C 186.175781 1.074219 186.1875 1.078125 186.195312 1.070312 C 186.214844 1.0625 186.230469 1.046875 186.25 1.039062 C 186.324219 1.003906 186.410156 0.980469 186.5 0.980469 L 186.503906 0.980469 C 186.59375 0.980469 186.675781 1.003906 186.75 1.039062 C 186.769531 1.046875 186.785156 1.0625 186.804688 1.070312 C 186.8125 1.078125 186.824219 1.074219 186.835938 1.082031 C 186.855469 1.09375 186.867188 1.113281 186.886719 1.128906 C 186.914062 1.148438 186.9375 1.167969 186.957031 1.191406 C 186.964844 1.199219 186.976562 1.203125 186.984375 1.210938 C 189.914062 4.847656 193.253906 7.308594 196.199219 9.480469 C 201.019531 13.027344 205.179688 16.089844 205.179688 22.65625 C 205.179688 25.804688 204.171875 28.519531 203.195312 31.144531 C 202.347656 33.417969 201.546875 35.566406 201.546875 37.730469 C 201.546875 42.351562 203.808594 45.996094 203.832031 46.03125 C 203.980469 46.265625 203.953125 46.574219 203.765625 46.777344 C 203.578125 46.984375 203.277344 47.039062 203.03125 46.910156 C 192.824219 41.6875 191.144531 29.128906 189.660156 18.046875 C 189.011719 13.1875 188.378906 8.554688 187.121094 4.769531 L 187.121094 59.308594 C 187.503906 60.425781 188.5 61.5625 189.5625 62.761719 C 191.0625 64.460938 192.730469 66.363281 193.066406 68.726562 C 195.117188 67.921875 196.1875 66.539062 197.21875 65.1875 C 198.675781 63.28125 200.183594 61.308594 204.195312 61.308594 C 208.773438 61.308594 218.101562 67.871094 218.101562 75.492188 C 218.101562 78.65625 215.84375 81.917969 212.851562 83.078125 C 211.226562 83.703125 208.160156 84.183594 204.652344 81.222656 C 204.75 81.929688 204.8125 82.683594 204.8125 83.507812 C 204.8125 90.972656 198.71875 95.105469 193.339844 98.75 C 190.886719 100.414062 188.570312 101.984375 186.960938 103.746094 C 186.941406 103.765625 186.917969 103.773438 186.898438 103.792969 C 186.875 103.808594 186.855469 103.820312 186.832031 103.835938 C 186.734375 103.902344 186.625 103.949219 186.507812 103.949219 L 186.503906 103.949219 C 186.386719 103.949219 186.277344 103.902344 186.175781 103.835938 C 186.152344 103.820312 186.132812 103.808594 186.113281 103.792969 C 186.09375 103.773438 186.066406 103.765625 186.050781 103.746094 C 184.441406 101.988281 182.125 100.417969 179.675781 98.757812 C 174.292969 95.109375 168.199219 90.976562 168.199219 83.507812 C 168.199219 82.679688 168.261719 81.929688 168.359375 81.21875 C 164.839844 84.183594 161.769531 83.707031 160.144531 83.074219 C 157.152344 81.917969 154.898438 78.65625 154.898438 75.492188 C 154.898438 67.871094 164.234375 61.308594 168.816406 61.308594 Z M 177.53125 10.46875 C 172.796875 13.957031 169.054688 16.710938 169.054688 22.652344 C 169.054688 25.578125 170.027344 28.1875 170.964844 30.710938 C 171.855469 33.09375 172.691406 35.34375 172.691406 37.730469 C 172.691406 40.636719 171.886719 43.144531 171.191406 44.761719 C 179.238281 39.363281 180.699219 28.460938 182.113281 17.894531 C 182.757812 13.078125 183.371094 8.464844 184.613281 4.621094 C 182.246094 7 179.777344 8.816406 177.53125 10.46875 Z M 190.878906 17.878906 C 192.296875 28.453125 193.753906 39.363281 201.808594 44.761719 C 201.113281 43.144531 200.308594 40.636719 200.308594 37.726562 C 200.308594 35.34375 201.144531 33.089844 202.03125 30.707031 C 202.972656 28.1875 203.941406 25.578125 203.941406 22.652344 C 203.941406 16.710938 200.199219 13.957031 195.464844 10.472656 C 193.21875 8.816406 190.75 7 188.382812 4.617188 C 189.621094 8.460938 190.234375 13.070312 190.878906 17.878906 Z M 188.632812 63.582031 C 187.824219 62.667969 187.046875 61.789062 186.496094 60.878906 C 185.945312 61.785156 185.167969 62.664062 184.363281 63.574219 C 182.796875 65.347656 181.191406 67.179688 181.105469 69.394531 C 181.71875 70.332031 182.796875 71.0625 183.953125 71.824219 C 184.847656 72.417969 185.769531 73.027344 186.496094 73.777344 C 187.222656 73.027344 188.144531 72.417969 189.042969 71.820312 C 190.191406 71.058594 191.269531 70.332031 191.882812 69.394531 C 191.796875 67.179688 190.195312 65.351562 188.632812 63.582031 Z M 212.402344 81.925781 C 214.941406 80.941406 216.859375 78.175781 216.859375 75.492188 C 216.859375 68.289062 207.761719 62.546875 204.191406 62.546875 C 200.789062 62.546875 199.589844 64.121094 198.195312 65.941406 C 197.144531 67.316406 195.972656 68.847656 193.757812 69.785156 C 194.574219 70.367188 195.539062 70.886719 196.546875 71.425781 C 199.386719 72.949219 202.75 74.765625 204.144531 79.023438 C 206.8125 81.921875 209.738281 82.957031 212.402344 81.925781 Z M 192.640625 97.730469 C 198.015625 94.085938 203.570312 90.320312 203.570312 83.507812 C 203.570312 76.589844 199.703125 74.519531 195.960938 72.515625 C 194.75 71.871094 193.597656 71.25 192.628906 70.488281 C 191.871094 71.429688 190.78125 72.152344 189.722656 72.851562 C 188.769531 73.480469 187.882812 74.089844 187.242188 74.8125 C 187.902344 76.144531 188.980469 77.25 190.132812 78.402344 C 192.128906 80.394531 194.386719 82.648438 194.386719 86.53125 C 194.386719 90.410156 192.71875 92.996094 190.949219 95.734375 C 189.898438 97.363281 188.820312 99.039062 187.9375 101.132812 C 189.335938 99.96875 190.953125 98.871094 192.636719 97.730469 Z M 186.496094 101.40625 C 187.480469 98.828125 188.761719 96.847656 189.914062 95.0625 C 191.652344 92.371094 193.152344 90.046875 193.152344 86.53125 C 193.152344 83.164062 191.261719 81.277344 189.257812 79.277344 C 188.265625 78.285156 187.242188 77.265625 186.496094 76.058594 C 185.75 77.265625 184.726562 78.285156 183.730469 79.277344 C 181.726562 81.277344 179.832031 83.164062 179.832031 86.53125 C 179.832031 90.050781 181.335938 92.378906 183.078125 95.070312 C 184.230469 96.855469 185.507812 98.835938 186.496094 101.40625 Z M 180.359375 97.734375 C 182.039062 98.875 183.652344 99.96875 185.050781 101.128906 C 184.164062 99.039062 183.089844 97.367188 182.035156 95.742188 C 180.269531 93 178.597656 90.414062 178.597656 86.527344 C 178.597656 82.640625 180.859375 80.394531 182.855469 78.402344 C 184.011719 77.25 185.089844 76.144531 185.75 74.8125 C 185.109375 74.089844 184.21875 73.484375 183.265625 72.855469 C 182.203125 72.152344 181.113281 71.429688 180.351562 70.484375 C 179.386719 71.25 178.234375 71.867188 177.027344 72.511719 C 173.289062 74.515625 169.425781 76.585938 169.425781 83.507812 C 169.425781 90.320312 174.984375 94.089844 180.359375 97.730469 Z M 160.582031 81.921875 C 163.25 82.953125 166.179688 81.921875 168.851562 79.023438 C 170.246094 74.761719 173.605469 72.945312 176.445312 71.425781 C 177.449219 70.886719 178.414062 70.367188 179.226562 69.785156 C 177.019531 68.847656 175.84375 67.316406 174.796875 65.941406 C 173.402344 64.117188 172.203125 62.546875 168.808594 62.546875 C 165.234375 62.546875 156.128906 68.289062 156.128906 75.492188 C 156.128906 78.175781 158.042969 80.9375 160.582031 81.921875 Z M 160.335938 87.164062 C 160.667969 87.246094 160.871094 87.578125 160.792969 87.910156 C 160.277344 90.015625 160.019531 92.164062 160.019531 94.296875 C 160.019531 108.898438 171.898438 120.777344 186.5 120.777344 C 201.101562 120.777344 212.980469 108.902344 212.980469 94.296875 C 212.980469 92.15625 212.714844 90.007812 212.191406 87.914062 C 212.109375 87.582031 212.3125 87.246094 212.640625 87.164062 C 212.691406 87.152344 212.742188 87.144531 212.792969 87.144531 C 213.070312 87.144531 213.320312 87.332031 213.394531 87.613281 C 213.941406 89.804688 214.21875 92.054688 214.21875 94.296875 C 214.21875 109.582031 201.785156 122.015625 186.5 122.015625 C 171.214844 122.015625 158.785156 109.582031 158.785156 94.296875 C 158.785156 92.066406 159.058594 89.820312 159.59375 87.617188 C 159.675781 87.285156 160.015625 87.078125 160.339844 87.164062 Z M 176.207031 1.839844 C 176.386719 1.839844 176.5625 1.917969 176.6875 2.070312 C 176.902344 2.332031 176.859375 2.722656 176.597656 2.9375 C 158.417969 17.722656 134.789062 28.046875 119.128906 28.046875 C 107.769531 28.046875 101.828125 20.789062 101.828125 13.617188 C 101.828125 10.1875 103.695312 6.933594 106.820312 4.90625 C 109.644531 3.078125 112.96875 2.644531 115.488281 3.773438 C 115.800781 3.914062 115.9375 4.28125 115.796875 4.59375 C 115.660156 4.902344 115.289062 5.039062 114.980469 4.902344 C 112.839844 3.941406 109.96875 4.34375 107.492188 5.945312 C 104.722656 7.738281 103.066406 10.609375 103.066406 13.617188 C 103.066406 19.972656 108.09375 26.8125 119.128906 26.8125 C 134.527344 26.8125 157.839844 16.601562 175.816406 1.980469 C 175.929688 1.882812 176.070312 1.839844 176.207031 1.839844 Z M 176.207031 1.839844 " fill-opacity="1" fill-rule="nonzero"/></g></g></g></g></svg>