<svg xmlns="http://www.w3.org/2000/svg" xmlns:xlink="http://www.w3.org/1999/xlink" width="500" zoomAndPan="magnify" viewBox="0 0 375 187.499995" height="250" preserveAspectRatio="xMidYMid meet" version="1.0"><defs><clipPath id="ad5d580327"><path d="M 1 32.976562 L 374 32.976562 L 374 154.15625 L 1 154.15625 Z M 1 32.976562 " clip-rule="nonzero"/></clipPath></defs><g clip-path="url(#ad5d580327)"><path fill="#594450" d="M 266.507812 149.039062 C 264.023438 150.648438 261.148438 151.050781 259.003906 150.085938 C 258.691406 149.949219 258.328125 150.085938 258.1875 150.398438 C 258.046875 150.710938 258.1875 151.074219 258.5 151.214844 C 261.023438 152.34375 264.347656 151.910156 267.179688 150.078125 C 270.304688 148.054688 272.167969 144.800781 272.167969 141.371094 C 272.167969 134.203125 266.222656 126.941406 254.859375 126.941406 C 239.214844 126.941406 215.582031 137.269531 197.386719 152.050781 C 197.125 152.269531 197.082031 152.65625 197.296875 152.921875 C 197.421875 153.070312 197.597656 153.148438 197.777344 153.148438 C 197.917969 153.148438 198.054688 153.105469 198.167969 153.011719 C 216.160156 138.386719 239.472656 128.175781 254.859375 128.175781 C 265.902344 128.175781 270.933594 135.015625 270.933594 141.371094 C 270.933594 144.378906 269.277344 147.246094 266.507812 149.039062 Z M 239.355469 74.554688 C 239.605469 74.324219 239.617188 73.933594 239.386719 73.683594 C 238.953125 73.214844 238.597656 71.292969 239.472656 69.28125 C 240.207031 67.585938 241.949219 65.566406 246.078125 65.566406 C 255.679688 65.566406 266.046875 74.160156 266.046875 88.039062 C 266.046875 101.03125 259.226562 109.71875 253.027344 114.945312 C 265.117188 100.148438 261.585938 87.777344 260.070312 84.074219 C 258.070312 79.183594 254.484375 75.769531 251.351562 75.769531 C 248.480469 75.769531 246.472656 77.671875 246.472656 80.394531 C 246.472656 80.734375 246.746094 81.011719 247.089844 81.011719 C 247.429688 81.011719 247.707031 80.734375 247.707031 80.394531 C 247.707031 78.367188 249.171875 77.003906 251.351562 77.003906 C 253.582031 77.003906 256.898438 79.59375 258.925781 84.546875 C 260.523438 88.449219 264.449219 102.445312 247.910156 118.707031 C 247.898438 118.71875 247.890625 118.738281 247.878906 118.75 C 247.851562 118.785156 247.828125 118.820312 247.808594 118.855469 C 247.789062 118.890625 247.773438 118.921875 247.765625 118.957031 C 247.75 118.996094 247.746094 119.035156 247.742188 119.078125 C 247.734375 119.113281 247.734375 119.152344 247.738281 119.191406 C 247.742188 119.230469 247.75 119.269531 247.757812 119.304688 C 247.769531 119.347656 247.785156 119.382812 247.804688 119.421875 C 247.8125 119.4375 247.8125 119.457031 247.824219 119.476562 C 247.832031 119.492188 247.851562 119.496094 247.863281 119.507812 C 247.878906 119.53125 247.886719 119.558594 247.90625 119.578125 C 247.9375 119.609375 247.972656 119.625 248.007812 119.648438 C 248.03125 119.664062 248.054688 119.683594 248.078125 119.695312 C 248.164062 119.738281 248.253906 119.765625 248.347656 119.765625 C 248.449219 119.765625 248.546875 119.726562 248.636719 119.679688 C 248.652344 119.671875 248.664062 119.675781 248.675781 119.667969 C 255.625 115.285156 267.28125 105.351562 267.28125 88.039062 C 267.28125 73.394531 256.273438 64.328125 246.078125 64.328125 C 241.027344 64.328125 239.0625 67.121094 238.339844 68.785156 C 237.347656 71.066406 237.617188 73.59375 238.484375 74.527344 C 238.71875 74.777344 239.109375 74.792969 239.359375 74.558594 Z M 267.707031 122.109375 C 269.066406 123.476562 270.875 124.230469 272.796875 124.230469 L 272.800781 124.230469 C 274.722656 124.230469 276.53125 123.476562 277.886719 122.109375 C 283.917969 116.105469 283.835938 106.972656 283.828125 106.585938 C 283.824219 106.25 283.554688 105.980469 283.21875 105.976562 C 282.84375 105.980469 273.738281 105.921875 267.703125 111.925781 C 264.902344 114.75 264.902344 119.316406 267.703125 122.109375 Z M 268.582031 112.800781 C 273.363281 108.039062 280.453125 107.335938 282.578125 107.230469 C 282.484375 109.363281 281.796875 116.472656 277.011719 121.234375 C 275.886719 122.371094 274.390625 122.996094 272.800781 122.996094 C 271.207031 122.996094 269.710938 122.371094 268.582031 121.234375 C 266.261719 118.921875 266.261719 115.136719 268.582031 112.796875 Z M 206.207031 150.265625 C 205.96875 150.433594 205.878906 150.746094 205.992188 151.015625 C 206.105469 151.28125 206.382812 151.433594 206.679688 151.378906 C 210.667969 150.589844 213.691406 151.027344 216.890625 151.488281 C 218.925781 151.78125 221.003906 152.082031 223.402344 152.082031 C 224.945312 152.082031 226.621094 151.960938 228.507812 151.628906 C 233.007812 150.84375 235.613281 148.441406 238.128906 146.125 C 240.132812 144.28125 242.023438 142.539062 244.730469 141.847656 C 245.011719 141.773438 245.203125 141.519531 245.195312 141.230469 C 245.1875 140.941406 244.980469 140.695312 244.699219 140.640625 C 237.527344 139.226562 222.992188 138.597656 206.207031 150.265625 Z M 237.292969 145.214844 C 234.90625 147.414062 232.4375 149.6875 228.292969 150.410156 C 223.6875 151.222656 220.320312 150.738281 217.066406 150.265625 C 215.09375 149.980469 213.1875 149.707031 211.078125 149.707031 C 210.457031 149.707031 209.820312 149.730469 209.15625 149.785156 C 223.015625 140.941406 235.054688 140.523438 242.199219 141.480469 C 240.332031 142.414062 238.84375 143.785156 237.292969 145.214844 Z M 278.800781 131.539062 C 278.769531 131.5625 278.734375 131.578125 278.710938 131.609375 L 278.683594 131.636719 L 278.675781 131.652344 C 278.65625 131.675781 278.640625 131.703125 278.625 131.730469 C 278.613281 131.753906 278.59375 131.773438 278.585938 131.796875 C 278.554688 131.871094 278.539062 131.945312 278.539062 132.023438 L 278.539062 132.042969 L 278.542969 132.066406 L 278.550781 132.09375 C 278.554688 132.144531 278.558594 132.191406 278.574219 132.242188 L 278.582031 132.253906 C 278.609375 132.324219 278.652344 132.390625 278.703125 132.445312 L 278.707031 132.457031 C 280.433594 134.261719 281.964844 136.6875 283.449219 139.03125 C 285.074219 141.601562 286.753906 144.261719 288.691406 146.078125 C 291.261719 148.492188 294.613281 149.878906 297.308594 150.992188 C 298.828125 151.621094 300.140625 152.167969 301.09375 152.777344 C 301.195312 152.84375 301.3125 152.875 301.429688 152.875 C 301.601562 152.875 301.773438 152.800781 301.894531 152.660156 C 302.097656 152.425781 302.09375 152.082031 301.894531 151.847656 C 300.808594 150.601562 299.789062 148.9375 298.710938 147.171875 C 297.339844 144.9375 295.921875 142.628906 294.230469 140.960938 C 292.046875 138.820312 288.023438 136.515625 284.476562 134.488281 C 283.425781 133.886719 282.417969 133.308594 281.488281 132.753906 C 290.792969 133.449219 303.773438 138.011719 317.460938 142.832031 C 332.679688 148.191406 348.417969 153.738281 359.277344 153.738281 C 367.121094 153.738281 371.511719 149.890625 373.007812 146.292969 C 374.398438 142.933594 373.683594 139.378906 371.089844 136.777344 C 368.121094 133.816406 365.238281 134.027344 363.78125 134.421875 C 361.738281 134.972656 360.046875 136.539062 359.574219 138.316406 C 359.222656 139.632812 359.558594 140.886719 360.515625 141.839844 C 360.757812 142.082031 361.148438 142.078125 361.390625 141.839844 C 361.628906 141.601562 361.628906 141.210938 361.390625 140.96875 C 360.578125 140.160156 360.601562 139.253906 360.765625 138.636719 C 361.132812 137.269531 362.472656 136.054688 364.101562 135.617188 C 365.304688 135.296875 367.691406 135.132812 370.214844 137.648438 C 372.445312 139.882812 373.058594 142.941406 371.863281 145.820312 C 370.523438 149.050781 366.511719 152.5 359.277344 152.5 C 348.628906 152.5 332.992188 146.996094 317.871094 141.667969 C 305.199219 137.203125 293.136719 132.964844 283.902344 131.761719 C 287.238281 131.246094 290.789062 130.898438 294.273438 130.578125 C 300.125 130.035156 306.175781 129.472656 310.953125 128.03125 C 317.324219 126.109375 322.699219 122.40625 327.011719 119.433594 C 329.214844 117.914062 331.292969 116.480469 333.136719 115.535156 C 333.410156 115.394531 333.535156 115.078125 333.4375 114.789062 C 333.339844 114.496094 333.039062 114.324219 332.738281 114.378906 C 329.816406 114.925781 326.332031 115.21875 322.640625 115.53125 C 317.414062 115.976562 312.011719 116.433594 307.601562 117.65625 C 301.609375 119.300781 293.519531 123.667969 286.382812 127.523438 C 283.667969 128.988281 281.101562 130.375 278.882812 131.480469 C 278.851562 131.496094 278.828125 131.523438 278.800781 131.542969 Z M 283.859375 135.558594 C 287.34375 137.550781 291.292969 139.8125 293.363281 141.839844 C 294.945312 143.398438 296.324219 145.644531 297.652344 147.816406 C 298.230469 148.75 298.785156 149.664062 299.351562 150.507812 C 298.855469 150.292969 298.332031 150.074219 297.78125 149.847656 C 295.046875 148.714844 291.945312 147.433594 289.535156 145.171875 C 287.714844 143.464844 286.148438 140.988281 284.492188 138.367188 C 283.65625 137.042969 282.800781 135.691406 281.898438 134.429688 C 282.53125 134.796875 283.1875 135.171875 283.859375 135.554688 Z M 286.96875 128.605469 C 294.046875 124.785156 302.070312 120.453125 307.929688 118.847656 C 312.230469 117.652344 317.574219 117.199219 322.742188 116.761719 C 325.207031 116.550781 327.582031 116.347656 329.769531 116.074219 C 328.660156 116.789062 327.503906 117.589844 326.308594 118.410156 C 321.84375 121.488281 316.78125 124.980469 310.59375 126.847656 C 305.9375 128.253906 299.949219 128.808594 294.15625 129.34375 C 290.507812 129.683594 286.769531 130.027344 283.273438 130.589844 C 284.460938 129.960938 285.695312 129.292969 286.964844 128.605469 Z M 216.347656 119.484375 C 218.0625 121.722656 220.621094 122.941406 223.511719 122.941406 C 223.925781 122.941406 224.34375 122.902344 224.769531 122.855469 C 225.765625 123.394531 226.925781 123.679688 228.167969 123.679688 C 229.160156 123.679688 230.195312 123.503906 231.234375 123.15625 C 234.367188 122.101562 236.980469 119.640625 238.226562 116.570312 C 239.101562 114.425781 239.398438 111.765625 239.683594 109.191406 C 240.132812 105.128906 240.558594 101.296875 243.03125 99.617188 C 243.199219 99.503906 243.300781 99.316406 243.300781 99.117188 C 243.304688 98.917969 243.210938 98.726562 243.050781 98.605469 C 239.753906 96.203125 235.371094 96.738281 232.558594 98.480469 C 231.476562 96.128906 229.917969 93.921875 227.792969 92.074219 C 227.621094 91.921875 227.378906 91.882812 227.167969 91.964844 C 226.957031 92.042969 226.804688 92.234375 226.777344 92.460938 C 226.453125 94.933594 224.414062 96.984375 222.058594 99.359375 C 219.691406 101.742188 217.007812 104.445312 215.398438 108.238281 C 213.691406 112.28125 214.046875 116.484375 216.347656 119.488281 Z M 241.628906 99.160156 C 239.308594 101.335938 238.875 105.253906 238.453125 109.050781 C 238.175781 111.542969 237.890625 114.121094 237.082031 116.105469 C 235.96875 118.84375 233.636719 121.042969 230.839844 121.984375 C 229.472656 122.445312 228.132812 122.523438 226.941406 122.296875 C 229.976562 121.09375 232.433594 118.136719 233.6875 113.96875 C 234.914062 109.890625 234.9375 104.523438 233.039062 99.632812 C 235.289062 98.148438 238.804688 97.5625 241.632812 99.160156 Z M 216.539062 108.71875 C 218.054688 105.144531 220.648438 102.53125 222.9375 100.226562 C 225.121094 98.027344 227.046875 96.085938 227.761719 93.726562 C 233.441406 99.316406 234.242188 107.835938 232.503906 113.617188 C 231.132812 118.171875 228.257812 121.160156 224.8125 121.617188 L 224.808594 121.617188 C 221.769531 122.039062 219.046875 120.980469 217.328125 118.738281 C 215.304688 116.089844 215.007812 112.347656 216.539062 108.722656 Z M 102.1875 124.234375 L 102.199219 124.234375 C 104.125 124.234375 105.933594 123.480469 107.292969 122.109375 C 110.085938 119.320312 110.085938 114.753906 107.292969 111.925781 C 101.265625 105.921875 92.140625 105.949219 91.769531 105.976562 C 91.4375 105.984375 91.164062 106.253906 91.160156 106.589844 C 91.152344 106.972656 91.082031 116.105469 97.109375 122.109375 C 98.464844 123.476562 100.269531 124.230469 102.191406 124.234375 Z M 106.414062 112.796875 C 108.730469 115.140625 108.734375 118.925781 106.414062 121.238281 C 105.289062 122.375 103.789062 123 102.195312 123 L 102.1875 123 C 100.597656 123 99.105469 122.375 97.984375 121.234375 C 93.203125 116.476562 92.511719 109.367188 92.410156 107.234375 C 94.542969 107.335938 101.640625 108.039062 106.414062 112.800781 Z M 131.683594 99.117188 C 131.6875 99.320312 131.789062 99.507812 131.957031 99.621094 C 134.4375 101.300781 134.863281 105.136719 135.316406 109.199219 C 135.605469 111.773438 135.898438 114.433594 136.773438 116.570312 C 138.011719 119.636719 140.621094 122.097656 143.757812 123.15625 C 144.796875 123.507812 145.835938 123.683594 146.824219 123.683594 C 148.066406 123.683594 149.226562 123.398438 150.21875 122.855469 C 150.589844 122.898438 150.957031 122.925781 151.320312 122.929688 C 154.285156 127.769531 157.316406 131.742188 160.324219 134.71875 C 160.441406 134.839844 160.601562 134.898438 160.757812 134.898438 C 160.914062 134.898438 161.074219 134.839844 161.195312 134.714844 C 161.433594 134.472656 161.433594 134.082031 161.191406 133.84375 C 158.371094 131.050781 155.527344 127.351562 152.730469 122.855469 C 155.105469 122.550781 157.183594 121.394531 158.640625 119.488281 C 160.9375 116.488281 161.292969 112.28125 159.585938 108.238281 C 157.976562 104.445312 155.296875 101.746094 152.933594 99.363281 C 150.578125 96.988281 148.542969 94.933594 148.222656 92.464844 C 148.195312 92.238281 148.042969 92.042969 147.832031 91.964844 C 147.621094 91.882812 147.378906 91.925781 147.203125 92.074219 C 145.082031 93.921875 143.519531 96.128906 142.4375 98.484375 C 139.625 96.742188 135.242188 96.203125 131.9375 98.609375 C 131.773438 98.726562 131.679688 98.917969 131.683594 99.117188 Z M 147.238281 93.730469 C 147.949219 96.09375 149.875 98.03125 152.058594 100.234375 C 154.34375 102.539062 156.933594 105.148438 158.445312 108.71875 C 159.980469 112.351562 159.6875 116.09375 157.664062 118.738281 C 155.945312 120.980469 153.210938 122.03125 150.179688 121.617188 L 150.175781 121.617188 C 146.734375 121.160156 143.867188 118.175781 142.496094 113.621094 C 140.757812 107.839844 141.558594 99.316406 147.238281 93.730469 Z M 141.960938 99.636719 C 140.0625 104.527344 140.082031 109.898438 141.3125 113.980469 C 142.566406 118.140625 145.015625 121.101562 148.050781 122.300781 C 146.859375 122.527344 145.519531 122.449219 144.152344 121.988281 C 141.355469 121.042969 139.027344 118.847656 137.917969 116.105469 C 137.109375 114.125 136.824219 111.550781 136.546875 109.0625 C 136.121094 105.257812 135.683594 101.335938 133.359375 99.164062 C 136.195312 97.566406 139.714844 98.152344 141.960938 99.636719 Z M 15.714844 153.734375 C 26.582031 153.734375 42.328125 148.191406 57.550781 142.824219 C 71.234375 138.007812 84.203125 133.445312 93.503906 132.75 C 92.578125 133.300781 91.578125 133.878906 90.535156 134.476562 C 86.984375 136.507812 82.957031 138.816406 80.769531 140.960938 C 79.078125 142.625 77.664062 144.933594 76.296875 147.167969 C 75.214844 148.933594 74.195312 150.601562 73.109375 151.847656 C 72.90625 152.078125 72.90625 152.425781 73.109375 152.65625 C 73.230469 152.796875 73.402344 152.871094 73.578125 152.871094 C 73.691406 152.871094 73.804688 152.839844 73.910156 152.773438 C 74.863281 152.164062 76.175781 151.621094 77.699219 150.992188 C 80.390625 149.875 83.742188 148.488281 86.316406 146.078125 C 88.253906 144.257812 89.9375 141.59375 91.5625 139.015625 C 93.039062 136.679688 94.566406 134.257812 96.285156 132.457031 L 96.292969 132.445312 C 96.34375 132.390625 96.382812 132.324219 96.410156 132.253906 L 96.417969 132.242188 C 96.4375 132.191406 96.441406 132.140625 96.445312 132.085938 L 96.449219 132.070312 L 96.453125 132.042969 L 96.457031 132.03125 L 96.457031 132.027344 C 96.453125 131.949219 96.4375 131.871094 96.40625 131.800781 C 96.398438 131.777344 96.378906 131.757812 96.367188 131.734375 C 96.355469 131.707031 96.339844 131.679688 96.316406 131.652344 L 96.3125 131.636719 L 96.304688 131.632812 L 96.285156 131.609375 C 96.257812 131.582031 96.226562 131.5625 96.195312 131.542969 C 96.167969 131.523438 96.148438 131.496094 96.117188 131.480469 C 93.886719 130.367188 91.3125 128.976562 88.585938 127.507812 C 81.460938 123.660156 73.382812 119.300781 67.410156 117.65625 C 62.996094 116.433594 57.59375 115.976562 52.367188 115.53125 C 48.671875 115.21875 45.1875 114.921875 42.265625 114.375 C 41.964844 114.320312 41.667969 114.492188 41.566406 114.785156 C 41.464844 115.078125 41.597656 115.394531 41.871094 115.535156 C 43.703125 116.476562 45.773438 117.90625 47.964844 119.417969 C 52.285156 122.398438 57.664062 126.109375 64.054688 128.03125 C 68.824219 129.476562 74.875 130.035156 80.726562 130.578125 C 84.210938 130.898438 87.757812 131.246094 91.09375 131.761719 C 81.863281 132.964844 69.808594 137.203125 57.144531 141.660156 C 42.015625 146.988281 26.375 152.5 15.71875 152.5 C 8.488281 152.5 4.480469 149.054688 3.140625 145.828125 C 1.941406 142.945312 2.5625 139.886719 4.789062 137.648438 C 7.3125 135.128906 9.699219 135.292969 10.898438 135.613281 C 12.53125 136.050781 13.875 137.269531 14.242188 138.636719 C 14.40625 139.253906 14.429688 140.15625 13.621094 140.96875 C 13.378906 141.207031 13.378906 141.597656 13.621094 141.839844 C 13.859375 142.078125 14.25 142.082031 14.492188 141.839844 C 15.453125 140.882812 15.789062 139.632812 15.433594 138.316406 C 14.960938 136.535156 13.265625 134.96875 11.21875 134.417969 C 9.761719 134.03125 6.878906 133.816406 3.914062 136.777344 C 1.320312 139.378906 0.601562 142.941406 2 146.300781 C 3.492188 149.894531 7.878906 153.734375 15.71875 153.734375 Z M 90.515625 138.359375 C 88.855469 140.980469 87.289062 143.464844 85.464844 145.175781 C 83.058594 147.433594 79.957031 148.714844 77.222656 149.847656 C 76.671875 150.074219 76.144531 150.292969 75.652344 150.507812 C 76.214844 149.664062 76.773438 148.753906 77.347656 147.816406 C 78.679688 145.644531 80.054688 143.398438 81.636719 141.84375 C 83.710938 139.808594 87.664062 137.546875 91.148438 135.546875 C 91.816406 135.164062 92.472656 134.792969 93.101562 134.425781 C 92.199219 135.683594 91.347656 137.035156 90.515625 138.359375 Z M 80.835938 129.34375 C 75.042969 128.808594 69.058594 128.253906 64.40625 126.847656 C 58.199219 124.976562 53.136719 121.480469 48.664062 118.398438 C 47.476562 117.582031 46.328125 116.785156 45.222656 116.074219 C 47.414062 116.347656 49.789062 116.550781 52.257812 116.761719 C 57.425781 117.199219 62.773438 117.652344 67.074219 118.847656 C 72.914062 120.453125 80.925781 124.777344 87.996094 128.59375 C 89.277344 129.28125 90.519531 129.957031 91.714844 130.589844 C 88.222656 130.03125 84.484375 129.683594 80.835938 129.34375 Z M 126.332031 119.667969 C 126.34375 119.675781 126.359375 119.671875 126.371094 119.679688 C 126.460938 119.730469 126.558594 119.761719 126.65625 119.765625 L 126.660156 119.765625 C 126.753906 119.765625 126.84375 119.738281 126.925781 119.695312 C 126.953125 119.683594 126.972656 119.664062 126.996094 119.648438 C 127.03125 119.625 127.070312 119.609375 127.101562 119.578125 C 127.121094 119.558594 127.128906 119.53125 127.144531 119.507812 C 127.15625 119.496094 127.171875 119.488281 127.183594 119.476562 C 127.191406 119.457031 127.191406 119.441406 127.203125 119.421875 C 127.222656 119.382812 127.234375 119.347656 127.246094 119.304688 C 127.257812 119.269531 127.265625 119.234375 127.269531 119.195312 C 127.269531 119.15625 127.269531 119.117188 127.265625 119.078125 C 127.261719 119.039062 127.253906 119 127.242188 118.960938 C 127.230469 118.925781 127.214844 118.890625 127.195312 118.859375 C 127.175781 118.820312 127.152344 118.785156 127.125 118.75 C 127.113281 118.738281 127.109375 118.71875 127.09375 118.707031 C 110.554688 102.449219 114.480469 88.449219 116.078125 84.546875 C 118.101562 79.59375 121.421875 77.003906 123.652344 77.003906 C 125.832031 77.003906 127.296875 78.367188 127.296875 80.394531 C 127.296875 80.734375 127.574219 81.011719 127.914062 81.011719 C 128.257812 81.011719 128.535156 80.734375 128.535156 80.394531 C 128.535156 77.671875 126.527344 75.769531 123.652344 75.769531 C 120.519531 75.769531 116.933594 79.1875 114.933594 84.078125 C 113.417969 87.78125 109.886719 100.148438 121.976562 114.945312 C 115.777344 109.71875 108.960938 101.03125 108.960938 88.039062 C 108.960938 74.160156 119.316406 65.566406 128.910156 65.566406 C 133.046875 65.566406 134.792969 67.59375 135.53125 69.292969 C 136.402344 71.300781 136.046875 73.21875 135.613281 73.683594 C 135.382812 73.929688 135.394531 74.324219 135.644531 74.554688 C 135.890625 74.785156 136.285156 74.773438 136.515625 74.527344 C 137.382812 73.597656 137.652344 71.074219 136.664062 68.796875 C 135.941406 67.128906 133.96875 64.328125 128.910156 64.328125 C 118.722656 64.328125 107.722656 73.394531 107.722656 88.039062 C 107.722656 105.355469 119.382812 115.285156 126.332031 119.667969 Z M 130.300781 140.640625 C 130.015625 140.695312 129.8125 140.941406 129.800781 141.230469 C 129.792969 141.519531 129.988281 141.773438 130.265625 141.847656 C 132.976562 142.539062 134.867188 144.277344 136.871094 146.125 C 139.386719 148.445312 141.992188 150.84375 146.496094 151.628906 C 148.375 151.960938 150.046875 152.085938 151.59375 152.085938 C 153.984375 152.085938 156.0625 151.785156 158.097656 151.492188 C 161.296875 151.03125 164.320312 150.59375 168.304688 151.382812 C 168.597656 151.433594 168.878906 151.285156 168.992188 151.015625 C 169.105469 150.746094 169.019531 150.4375 168.777344 150.269531 C 152.007812 138.601562 137.46875 139.230469 130.300781 140.644531 Z M 165.832031 149.785156 C 162.917969 149.546875 160.476562 149.898438 157.921875 150.265625 C 154.667969 150.738281 151.308594 151.222656 146.707031 150.410156 C 142.5625 149.6875 140.09375 147.414062 137.707031 145.21875 C 136.15625 143.789062 134.667969 142.417969 132.800781 141.484375 C 139.941406 140.53125 151.984375 140.945312 165.832031 149.785156 Z M 169.808594 93.683594 C 173.8125 93.683594 175.320312 91.710938 176.777344 89.800781 C 177.808594 88.453125 178.878906 87.070312 180.925781 86.265625 C 181.261719 88.628906 182.933594 90.535156 184.4375 92.234375 C 185.496094 93.433594 186.492188 94.566406 186.878906 95.683594 L 186.878906 150.222656 C 185.621094 146.4375 184.988281 141.796875 184.335938 136.933594 C 182.855469 125.855469 181.179688 113.300781 170.972656 108.078125 C 170.726562 107.953125 170.421875 108.007812 170.234375 108.214844 C 170.046875 108.417969 170.019531 108.726562 170.167969 108.960938 C 170.191406 108.996094 172.457031 112.625 172.457031 117.261719 C 172.457031 119.421875 171.65625 121.574219 170.808594 123.847656 C 169.832031 126.472656 168.820312 129.1875 168.820312 132.335938 C 168.820312 138.902344 172.980469 141.964844 177.800781 145.515625 C 180.746094 147.683594 184.085938 150.140625 187.019531 153.78125 C 187.023438 153.789062 187.035156 153.792969 187.042969 153.800781 C 187.066406 153.824219 187.089844 153.84375 187.117188 153.867188 C 187.132812 153.878906 187.144531 153.898438 187.164062 153.910156 C 187.175781 153.917969 187.1875 153.914062 187.195312 153.917969 C 187.214844 153.929688 187.230469 153.945312 187.25 153.953125 C 187.324219 153.988281 187.410156 154.007812 187.5 154.007812 L 187.503906 154.007812 C 187.59375 154.007812 187.675781 153.988281 187.75 153.953125 C 187.769531 153.945312 187.785156 153.929688 187.804688 153.917969 C 187.8125 153.914062 187.824219 153.917969 187.835938 153.910156 C 187.855469 153.898438 187.867188 153.878906 187.886719 153.863281 C 187.914062 153.84375 187.9375 153.824219 187.957031 153.800781 C 187.964844 153.792969 187.976562 153.789062 187.984375 153.78125 C 190.914062 150.140625 194.253906 147.683594 197.199219 145.511719 C 202.019531 141.964844 206.179688 138.898438 206.179688 132.335938 C 206.179688 129.1875 205.171875 126.472656 204.195312 123.847656 C 203.347656 121.574219 202.546875 119.425781 202.546875 117.261719 C 202.546875 112.640625 204.808594 108.996094 204.832031 108.960938 C 204.980469 108.726562 204.953125 108.417969 204.765625 108.214844 C 204.578125 108.007812 204.277344 107.953125 204.03125 108.078125 C 193.824219 113.304688 192.144531 125.863281 190.660156 136.945312 C 190.011719 141.804688 189.378906 146.4375 188.121094 150.222656 L 188.121094 95.683594 C 188.503906 94.566406 189.5 93.429688 190.5625 92.226562 C 192.0625 90.53125 193.730469 88.625 194.066406 86.265625 C 196.117188 87.070312 197.1875 88.453125 198.21875 89.800781 C 199.675781 91.710938 201.183594 93.683594 205.195312 93.683594 C 209.773438 93.683594 219.101562 87.117188 219.101562 79.5 C 219.101562 76.332031 216.84375 73.070312 213.851562 71.914062 C 212.226562 71.289062 209.160156 70.808594 205.652344 73.769531 C 205.75 73.058594 205.8125 72.308594 205.8125 71.484375 C 205.8125 64.015625 199.71875 59.882812 194.339844 56.238281 C 191.886719 54.578125 189.570312 53.007812 187.960938 51.246094 C 187.941406 51.226562 187.917969 51.21875 187.898438 51.199219 C 187.875 51.183594 187.855469 51.167969 187.832031 51.152344 C 187.734375 51.089844 187.625 51.042969 187.507812 51.042969 L 187.503906 51.042969 C 187.386719 51.042969 187.277344 51.089844 187.175781 51.152344 C 187.152344 51.167969 187.132812 51.183594 187.113281 51.199219 C 187.09375 51.21875 187.066406 51.226562 187.050781 51.246094 C 185.441406 53.003906 183.125 54.574219 180.675781 56.234375 C 175.292969 59.882812 169.199219 64.015625 169.199219 71.484375 C 169.199219 72.308594 169.261719 73.0625 169.359375 73.773438 C 165.839844 70.808594 162.769531 71.285156 161.144531 71.917969 C 158.152344 73.074219 155.898438 76.335938 155.898438 79.5 C 155.898438 87.117188 165.234375 93.683594 169.816406 93.683594 Z M 178.53125 144.523438 C 173.796875 141.035156 170.054688 138.28125 170.054688 132.339844 C 170.054688 129.414062 171.027344 126.804688 171.964844 124.28125 C 172.855469 121.898438 173.691406 119.648438 173.691406 117.261719 C 173.691406 114.351562 172.886719 111.847656 172.191406 110.226562 C 180.238281 115.628906 181.699219 126.53125 183.113281 137.097656 C 183.757812 141.914062 184.371094 146.527344 185.613281 150.371094 C 183.246094 147.992188 180.777344 146.175781 178.53125 144.523438 Z M 191.878906 137.109375 C 193.296875 126.539062 194.753906 115.628906 202.808594 110.226562 C 202.113281 111.847656 201.308594 114.355469 201.308594 117.265625 C 201.308594 119.648438 202.144531 121.902344 203.03125 124.28125 C 203.972656 126.804688 204.941406 129.414062 204.941406 132.339844 C 204.941406 138.277344 201.199219 141.035156 196.464844 144.519531 C 194.21875 146.171875 191.75 147.992188 189.382812 150.371094 C 190.621094 146.53125 191.234375 141.921875 191.878906 137.113281 Z M 189.632812 91.40625 C 188.824219 92.324219 188.046875 93.203125 187.496094 94.113281 C 186.945312 93.203125 186.167969 92.328125 185.363281 91.414062 C 183.796875 89.644531 182.191406 87.8125 182.105469 85.597656 C 182.71875 84.660156 183.796875 83.929688 184.953125 83.167969 C 185.847656 82.570312 186.769531 81.964844 187.496094 81.214844 C 188.222656 81.964844 189.144531 82.574219 190.042969 83.171875 C 191.191406 83.933594 192.269531 84.660156 192.882812 85.597656 C 192.796875 87.8125 191.195312 89.640625 189.632812 91.40625 Z M 213.402344 73.066406 C 215.941406 74.050781 217.859375 76.816406 217.859375 79.5 C 217.859375 86.703125 208.761719 92.445312 205.191406 92.445312 C 201.789062 92.445312 200.589844 90.871094 199.195312 89.050781 C 198.144531 87.675781 196.972656 86.144531 194.757812 85.207031 C 195.574219 84.625 196.539062 84.105469 197.546875 83.5625 C 200.386719 82.042969 203.75 80.226562 205.144531 75.96875 C 207.8125 73.070312 210.738281 72.035156 213.402344 73.066406 Z M 193.640625 57.261719 C 199.015625 60.90625 204.570312 64.671875 204.570312 71.484375 C 204.570312 78.402344 200.703125 80.472656 196.960938 82.476562 C 195.75 83.121094 194.597656 83.738281 193.628906 84.503906 C 192.871094 83.5625 191.78125 82.839844 190.722656 82.140625 C 189.769531 81.507812 188.882812 80.902344 188.242188 80.179688 C 188.902344 78.84375 189.980469 77.742188 191.132812 76.589844 C 193.128906 74.597656 195.386719 72.339844 195.386719 68.460938 C 195.386719 64.582031 193.71875 61.996094 191.949219 59.257812 C 190.898438 57.628906 189.820312 55.953125 188.9375 53.859375 C 190.335938 55.019531 191.953125 56.121094 193.636719 57.261719 Z M 187.496094 53.585938 C 188.480469 56.164062 189.761719 58.144531 190.914062 59.929688 C 192.652344 62.621094 194.152344 64.945312 194.152344 68.460938 C 194.152344 71.828125 192.261719 73.714844 190.257812 75.714844 C 189.265625 76.707031 188.242188 77.726562 187.496094 78.933594 C 186.75 77.726562 185.726562 76.707031 184.730469 75.710938 C 182.726562 73.714844 180.832031 71.828125 180.832031 68.460938 C 180.832031 64.941406 182.335938 62.613281 184.078125 59.921875 C 185.230469 58.136719 186.507812 56.15625 187.496094 53.585938 Z M 181.359375 57.257812 C 183.039062 56.117188 184.652344 55.019531 186.050781 53.859375 C 185.164062 55.949219 184.089844 57.625 183.035156 59.25 C 181.269531 61.988281 179.597656 64.578125 179.597656 68.464844 C 179.597656 72.347656 181.859375 74.597656 183.855469 76.589844 C 185.011719 77.742188 186.089844 78.847656 186.75 80.179688 C 186.109375 80.902344 185.21875 81.507812 184.265625 82.136719 C 183.203125 82.839844 182.113281 83.5625 181.351562 84.507812 C 180.386719 83.742188 179.234375 83.125 178.027344 82.476562 C 174.289062 80.472656 170.425781 78.402344 170.425781 71.484375 C 170.425781 64.671875 175.984375 60.902344 181.359375 57.257812 Z M 161.582031 73.070312 C 164.25 72.035156 167.179688 73.070312 169.851562 75.96875 C 171.246094 80.226562 174.605469 82.046875 177.445312 83.566406 C 178.449219 84.105469 179.414062 84.625 180.226562 85.207031 C 178.019531 86.144531 176.84375 87.675781 175.796875 89.050781 C 174.402344 90.875 173.203125 92.445312 169.808594 92.445312 C 166.234375 92.445312 157.128906 86.703125 157.128906 79.5 C 157.128906 76.816406 159.042969 74.054688 161.582031 73.070312 Z M 161.335938 67.828125 C 161.667969 67.746094 161.871094 67.414062 161.792969 67.082031 C 161.277344 64.976562 161.019531 62.828125 161.019531 60.695312 C 161.019531 46.09375 172.898438 34.214844 187.5 34.214844 C 202.101562 34.214844 213.980469 46.089844 213.980469 60.695312 C 213.980469 62.835938 213.714844 64.984375 213.191406 67.078125 C 213.109375 67.410156 213.3125 67.746094 213.640625 67.828125 C 213.691406 67.839844 213.742188 67.847656 213.792969 67.847656 C 214.070312 67.847656 214.320312 67.660156 214.394531 67.378906 C 214.941406 65.183594 215.21875 62.9375 215.21875 60.695312 C 215.21875 45.410156 202.785156 32.976562 187.5 32.976562 C 172.214844 32.976562 159.785156 45.410156 159.785156 60.695312 C 159.785156 62.925781 160.058594 65.171875 160.59375 67.375 C 160.675781 67.707031 161.015625 67.914062 161.339844 67.828125 Z M 177.207031 153.152344 C 177.386719 153.152344 177.5625 153.070312 177.6875 152.921875 C 177.902344 152.65625 177.859375 152.269531 177.597656 152.054688 C 159.417969 137.269531 135.789062 126.941406 120.128906 126.941406 C 108.769531 126.941406 102.828125 134.203125 102.828125 141.375 C 102.828125 144.804688 104.695312 148.058594 107.820312 150.082031 C 110.644531 151.914062 113.96875 152.34375 116.488281 151.214844 C 116.800781 151.074219 116.9375 150.710938 116.796875 150.398438 C 116.660156 150.089844 116.289062 149.953125 115.980469 150.089844 C 113.839844 151.050781 110.96875 150.648438 108.492188 149.046875 C 105.722656 147.25 104.066406 144.382812 104.066406 141.375 C 104.066406 135.019531 109.09375 128.179688 120.128906 128.179688 C 135.527344 128.179688 158.839844 138.390625 176.816406 153.011719 C 176.929688 153.105469 177.070312 153.152344 177.207031 153.152344 Z M 177.207031 153.152344 " fill-opacity="1" fill-rule="nonzero"/></g></svg>